<svg width="100" height="100" viewBox="0 0 100 100" fill="none" xmlns="http://www.w3.org/2000/svg">
<path d="M45.8609 60C45.8609 61.5333 45.7276 62.8667 45.4609 64H41.4609C41.7276 65.0667 41.8609 66.4 41.8609 68C41.8609 69.5333 41.7276 70.8667 41.4609 72C41.7276 73.0667 41.8609 74.4 41.8609 76C41.8609 77.5333 41.7276 78.8667 41.4609 80H33.4609C33.1943 78.8667 33.0609 77.5333 33.0609 76C33.0609 74.4 33.1943 73.0667 33.4609 72C33.1943 70.8667 33.0609 69.5333 33.0609 68C33.0609 66.4 33.1943 65.0667 33.4609 64H13.4609C13.1943 62.8667 13.0609 61.5333 13.0609 60C13.0609 58.4 13.1943 57.0667 13.4609 56H16.4609C16.1943 54.8667 16.0609 53.5333 16.0609 52C16.0609 50.4 16.1943 49.0667 16.4609 48H19.4609C19.1943 46.8667 19.0609 45.5333 19.0609 44C19.0609 42.4 19.1943 41.0667 19.4609 40H22.4609C22.1943 38.8667 22.0609 37.5333 22.0609 36C22.0609 34.4 22.1943 33.0667 22.4609 32H27.4609C27.7276 33.0667 27.8609 34.4 27.8609 36C27.8609 37.5333 27.7276 38.8667 27.4609 40H24.4609C24.7276 41.0667 24.8609 42.4 24.8609 44C24.8609 45.5333 24.7276 46.8667 24.4609 48H21.4609C21.7276 49.0667 21.8609 50.4 21.8609 52C21.8609 53.5333 21.7276 54.8667 21.4609 56H33.4609C33.1943 54.8667 33.0609 53.5333 33.0609 52C33.0609 50.4 33.1943 49.0667 33.4609 48C33.1943 46.8667 33.0609 45.5333 33.0609 44C33.0609 42.4 33.1943 41.0667 33.4609 40C33.1943 38.8667 33.0609 37.5333 33.0609 36C33.0609 34.4 33.1943 33.0667 33.4609 32H27.4609C27.1943 30.8667 27.0609 29.5333 27.0609 28C27.0609 26.4 27.1943 25.0667 27.4609 24H41.4609C41.7276 25.0667 41.8609 26.4 41.8609 28C41.8609 29.5333 41.7276 30.8667 41.4609 32C41.7276 33.0667 41.8609 34.4 41.8609 36C41.8609 37.5333 41.7276 38.8667 41.4609 40C41.7276 41.0667 41.8609 42.4 41.8609 44C41.8609 45.5333 41.7276 46.8667 41.4609 48C41.7276 49.0667 41.8609 50.4 41.8609 52C41.8609 53.5333 41.7276 54.8667 41.4609 56H45.4609C45.7276 57.0667 45.8609 58.4 45.8609 60ZM85.5 48C85.7667 49.0667 85.9 50.4 85.9 52C85.9 53.5333 85.7667 54.8667 85.5 56C85.7667 57.0667 85.9 58.4 85.9 60C85.9 61.5333 85.7667 62.8667 85.5 64C85.7667 65.0667 85.9 66.4 85.9 68C85.9 69.5333 85.7667 70.8667 85.5 72H81.5C81.7667 73.0667 81.9 74.4 81.9 76C81.9 77.5333 81.7667 78.8667 81.5 80H61.5C61.2333 78.8667 61.1 77.5333 61.1 76C61.1 74.4 61.2333 73.0667 61.5 72H57.5C57.2333 70.8667 57.1 69.5333 57.1 68C57.1 66.4 57.2333 65.0667 57.5 64H53.5C53.2333 62.8667 53.1 61.5333 53.1 60C53.1 58.4 53.2333 57.0667 53.5 56C53.2333 54.8667 53.1 53.5333 53.1 52C53.1 50.4 53.2333 49.0667 53.5 48C53.2333 46.8667 53.1 45.5333 53.1 44C53.1 42.4 53.2333 41.0667 53.5 40H57.5C57.2333 38.8667 57.1 37.5333 57.1 36C57.1 34.4 57.2333 33.0667 57.5 32H61.5C61.2333 30.8667 61.1 29.5333 61.1 28C61.1 26.4 61.2333 25.0667 61.5 24H81.5C81.7667 25.0667 81.9 26.4 81.9 28C81.9 29.5333 81.7667 30.8667 81.5 32H85.5C85.7667 33.0667 85.9 34.4 85.9 36C85.9 37.5333 85.7667 38.8667 85.5 40H77.5C77.2333 38.8667 77.1 37.5333 77.1 36C77.1 34.4 77.2333 33.0667 77.5 32H65.5C65.7667 33.0667 65.9 34.4 65.9 36C65.9 37.5333 65.7667 38.8667 65.5 40H61.5C61.7667 41.0667 61.9 42.4 61.9 44C61.9 45.5333 61.7667 46.8667 61.5 48C61.7667 49.0667 61.9 50.4 61.9 52C61.9 53.5333 61.7667 54.8667 61.5 56C61.7667 57.0667 61.9 58.4 61.9 60C61.9 61.5333 61.7667 62.8667 61.5 64H65.5C65.7667 65.0667 65.9 66.4 65.9 68C65.9 69.5333 65.7667 70.8667 65.5 72H77.5C77.2333 70.8667 77.1 69.5333 77.1 68C77.1 66.4 77.2333 65.0667 77.5 64C77.2333 62.8667 77.1 61.5333 77.1 60C77.1 58.4 77.2333 57.0667 77.5 56H71.5C71.2333 54.8667 71.1 53.5333 71.1 52C71.1 50.4 71.2333 49.0667 71.5 48H85.5Z" fill="#7ECA9C"/>
</svg>
