<svg width="106" height="32" viewBox="0 0 106 32" fill="none" xmlns="http://www.w3.org/2000/svg">
<mask id="path-1-outside-1_13_80" maskUnits="userSpaceOnUse" x="0" y="7" width="38" height="20" fill="black">
<rect fill="white" y="7" width="38" height="20"/>
<path d="M11.9293 19.6C11.9293 20.0907 11.8866 20.5173 11.8013 20.88H10.5213C10.6066 21.2213 10.6493 21.648 10.6493 22.16C10.6493 22.6507 10.6066 23.0773 10.5213 23.44C10.6066 23.7813 10.6493 24.208 10.6493 24.72C10.6493 25.2107 10.6066 25.6373 10.5213 26H7.96125C7.87592 25.6373 7.83325 25.2107 7.83325 24.72C7.83325 24.208 7.87592 23.7813 7.96125 23.44C7.87592 23.0773 7.83325 22.6507 7.83325 22.16C7.83325 21.648 7.87592 21.2213 7.96125 20.88H1.56125C1.47592 20.5173 1.43325 20.0907 1.43325 19.6C1.43325 19.088 1.47592 18.6613 1.56125 18.32H2.52125C2.43592 17.9573 2.39325 17.5307 2.39325 17.04C2.39325 16.528 2.43592 16.1013 2.52125 15.76H3.48125C3.39592 15.3973 3.35325 14.9707 3.35325 14.48C3.35325 13.968 3.39592 13.5413 3.48125 13.2H4.44125C4.35592 12.8373 4.31325 12.4107 4.31325 11.92C4.31325 11.408 4.35592 10.9813 4.44125 10.64H6.04125C6.12658 10.9813 6.16925 11.408 6.16925 11.92C6.16925 12.4107 6.12658 12.8373 6.04125 13.2H5.08125C5.16658 13.5413 5.20925 13.968 5.20925 14.48C5.20925 14.9707 5.16658 15.3973 5.08125 15.76H4.12125C4.20658 16.1013 4.24925 16.528 4.24925 17.04C4.24925 17.5307 4.20658 17.9573 4.12125 18.32H7.96125C7.87592 17.9573 7.83325 17.5307 7.83325 17.04C7.83325 16.528 7.87592 16.1013 7.96125 15.76C7.87592 15.3973 7.83325 14.9707 7.83325 14.48C7.83325 13.968 7.87592 13.5413 7.96125 13.2C7.87592 12.8373 7.83325 12.4107 7.83325 11.92C7.83325 11.408 7.87592 10.9813 7.96125 10.64H6.04125C5.95592 10.2773 5.91325 9.85067 5.91325 9.36C5.91325 8.848 5.95592 8.42133 6.04125 8.08H10.5213C10.6066 8.42133 10.6493 8.848 10.6493 9.36C10.6493 9.85067 10.6066 10.2773 10.5213 10.64C10.6066 10.9813 10.6493 11.408 10.6493 11.92C10.6493 12.4107 10.6066 12.8373 10.5213 13.2C10.6066 13.5413 10.6493 13.968 10.6493 14.48C10.6493 14.9707 10.6066 15.3973 10.5213 15.76C10.6066 16.1013 10.6493 16.528 10.6493 17.04C10.6493 17.5307 10.6066 17.9573 10.5213 18.32H11.8013C11.8866 18.6613 11.9293 19.088 11.9293 19.6ZM23.3338 23.44C23.4191 23.7813 23.4618 24.208 23.4618 24.72C23.4618 25.2107 23.4191 25.6373 23.3338 26H15.6538C15.5684 25.6373 15.5258 25.2107 15.5258 24.72C15.5258 24.208 15.5684 23.7813 15.6538 23.44H18.2138C18.1284 23.0773 18.0858 22.6507 18.0858 22.16C18.0858 21.648 18.1284 21.2213 18.2138 20.88C18.1284 20.5173 18.0858 20.0907 18.0858 19.6C18.0858 19.088 18.1284 18.6613 18.2138 18.32C18.1284 17.9573 18.0858 17.5307 18.0858 17.04C18.0858 16.528 18.1284 16.1013 18.2138 15.76C18.1284 15.3973 18.0858 14.9707 18.0858 14.48C18.0858 13.968 18.1284 13.5413 18.2138 13.2H16.2938C16.2084 12.8373 16.1658 12.4107 16.1658 11.92C16.1658 11.408 16.2084 10.9813 16.2938 10.64H18.2138C18.1284 10.2773 18.0858 9.85067 18.0858 9.36C18.0858 8.848 18.1284 8.42133 18.2138 8.08H20.7738C20.8591 8.42133 20.9018 8.848 20.9018 9.36C20.9018 9.85067 20.8591 10.2773 20.7738 10.64C20.8591 10.9813 20.9018 11.408 20.9018 11.92C20.9018 12.4107 20.8591 12.8373 20.7738 13.2C20.8591 13.5413 20.9018 13.968 20.9018 14.48C20.9018 14.9707 20.8591 15.3973 20.7738 15.76C20.8591 16.1013 20.9018 16.528 20.9018 17.04C20.9018 17.5307 20.8591 17.9573 20.7738 18.32C20.8591 18.6613 20.9018 19.088 20.9018 19.6C20.9018 20.0907 20.8591 20.5173 20.7738 20.88C20.8591 21.2213 20.9018 21.648 20.9018 22.16C20.9018 22.6507 20.8591 23.0773 20.7738 23.44H23.3338ZM36.5943 14.48C36.5943 14.9707 36.5516 15.3973 36.4663 15.76H34.8663C34.9516 16.1013 34.9943 16.528 34.9943 17.04C34.9943 17.5307 34.9516 17.9573 34.8663 18.32H36.4663C36.5516 18.6613 36.5943 19.088 36.5943 19.6C36.5943 20.0907 36.5516 20.5173 36.4663 20.88C36.5516 21.2213 36.5943 21.648 36.5943 22.16C36.5943 22.6507 36.5516 23.0773 36.4663 23.44H34.8663C34.9516 23.7813 34.9943 24.208 34.9943 24.72C34.9943 25.2107 34.9516 25.6373 34.8663 26H29.7463C29.6609 25.6373 29.6183 25.2107 29.6183 24.72C29.6183 24.208 29.6609 23.7813 29.7463 23.44H28.1463C28.0609 23.0773 28.0182 22.6507 28.0182 22.16C28.0182 21.648 28.0609 21.2213 28.1463 20.88C28.0609 20.5173 28.0182 20.0907 28.0182 19.6C28.0182 19.088 28.0609 18.6613 28.1463 18.32H29.7463C29.6609 17.9573 29.6183 17.5307 29.6183 17.04C29.6183 16.528 29.6609 16.1013 29.7463 15.76H28.1463C28.0609 15.3973 28.0182 14.9707 28.0182 14.48C28.0182 13.968 28.0609 13.5413 28.1463 13.2C28.0609 12.8373 28.0182 12.4107 28.0182 11.92C28.0182 11.408 28.0609 10.9813 28.1463 10.64H29.7463C29.6609 10.2773 29.6183 9.85067 29.6183 9.36C29.6183 8.848 29.6609 8.42133 29.7463 8.08H34.8663C34.9516 8.42133 34.9943 8.848 34.9943 9.36C34.9943 9.85067 34.9516 10.2773 34.8663 10.64H36.4663C36.5516 10.9813 36.5943 11.408 36.5943 11.92C36.5943 12.4107 36.5516 12.8373 36.4663 13.2C36.5516 13.5413 36.5943 13.968 36.5943 14.48ZM33.9062 15.76C33.8209 15.3973 33.7783 14.9707 33.7783 14.48C33.7783 13.968 33.8209 13.5413 33.9062 13.2C33.8209 12.8373 33.7783 12.4107 33.7783 11.92C33.7783 11.408 33.8209 10.9813 33.9062 10.64H30.7063C30.7916 10.9813 30.8343 11.408 30.8343 11.92C30.8343 12.4107 30.7916 12.8373 30.7063 13.2C30.7916 13.5413 30.8343 13.968 30.8343 14.48C30.8343 14.9707 30.7916 15.3973 30.7063 15.76H33.9062ZM33.9062 20.88C33.8209 20.5173 33.7783 20.0907 33.7783 19.6C33.7783 19.088 33.8209 18.6613 33.9062 18.32H30.7063C30.7916 18.6613 30.8343 19.088 30.8343 19.6C30.8343 20.0907 30.7916 20.5173 30.7063 20.88C30.7916 21.2213 30.8343 21.648 30.8343 22.16C30.8343 22.6507 30.7916 23.0773 30.7063 23.44H33.9062C33.8209 23.0773 33.7783 22.6507 33.7783 22.16C33.7783 21.648 33.8209 21.2213 33.9062 20.88Z"/>
</mask>
<path d="M11.9293 19.6C11.9293 20.0907 11.8866 20.5173 11.8013 20.88H10.5213C10.6066 21.2213 10.6493 21.648 10.6493 22.16C10.6493 22.6507 10.6066 23.0773 10.5213 23.44C10.6066 23.7813 10.6493 24.208 10.6493 24.72C10.6493 25.2107 10.6066 25.6373 10.5213 26H7.96125C7.87592 25.6373 7.83325 25.2107 7.83325 24.72C7.83325 24.208 7.87592 23.7813 7.96125 23.44C7.87592 23.0773 7.83325 22.6507 7.83325 22.16C7.83325 21.648 7.87592 21.2213 7.96125 20.88H1.56125C1.47592 20.5173 1.43325 20.0907 1.43325 19.6C1.43325 19.088 1.47592 18.6613 1.56125 18.32H2.52125C2.43592 17.9573 2.39325 17.5307 2.39325 17.04C2.39325 16.528 2.43592 16.1013 2.52125 15.76H3.48125C3.39592 15.3973 3.35325 14.9707 3.35325 14.48C3.35325 13.968 3.39592 13.5413 3.48125 13.2H4.44125C4.35592 12.8373 4.31325 12.4107 4.31325 11.92C4.31325 11.408 4.35592 10.9813 4.44125 10.64H6.04125C6.12658 10.9813 6.16925 11.408 6.16925 11.92C6.16925 12.4107 6.12658 12.8373 6.04125 13.2H5.08125C5.16658 13.5413 5.20925 13.968 5.20925 14.48C5.20925 14.9707 5.16658 15.3973 5.08125 15.76H4.12125C4.20658 16.1013 4.24925 16.528 4.24925 17.04C4.24925 17.5307 4.20658 17.9573 4.12125 18.32H7.96125C7.87592 17.9573 7.83325 17.5307 7.83325 17.04C7.83325 16.528 7.87592 16.1013 7.96125 15.76C7.87592 15.3973 7.83325 14.9707 7.83325 14.48C7.83325 13.968 7.87592 13.5413 7.96125 13.2C7.87592 12.8373 7.83325 12.4107 7.83325 11.92C7.83325 11.408 7.87592 10.9813 7.96125 10.64H6.04125C5.95592 10.2773 5.91325 9.85067 5.91325 9.36C5.91325 8.848 5.95592 8.42133 6.04125 8.08H10.5213C10.6066 8.42133 10.6493 8.848 10.6493 9.36C10.6493 9.85067 10.6066 10.2773 10.5213 10.64C10.6066 10.9813 10.6493 11.408 10.6493 11.92C10.6493 12.4107 10.6066 12.8373 10.5213 13.2C10.6066 13.5413 10.6493 13.968 10.6493 14.48C10.6493 14.9707 10.6066 15.3973 10.5213 15.76C10.6066 16.1013 10.6493 16.528 10.6493 17.04C10.6493 17.5307 10.6066 17.9573 10.5213 18.32H11.8013C11.8866 18.6613 11.9293 19.088 11.9293 19.6ZM23.3338 23.44C23.4191 23.7813 23.4618 24.208 23.4618 24.72C23.4618 25.2107 23.4191 25.6373 23.3338 26H15.6538C15.5684 25.6373 15.5258 25.2107 15.5258 24.72C15.5258 24.208 15.5684 23.7813 15.6538 23.44H18.2138C18.1284 23.0773 18.0858 22.6507 18.0858 22.16C18.0858 21.648 18.1284 21.2213 18.2138 20.88C18.1284 20.5173 18.0858 20.0907 18.0858 19.6C18.0858 19.088 18.1284 18.6613 18.2138 18.32C18.1284 17.9573 18.0858 17.5307 18.0858 17.04C18.0858 16.528 18.1284 16.1013 18.2138 15.76C18.1284 15.3973 18.0858 14.9707 18.0858 14.48C18.0858 13.968 18.1284 13.5413 18.2138 13.2H16.2938C16.2084 12.8373 16.1658 12.4107 16.1658 11.92C16.1658 11.408 16.2084 10.9813 16.2938 10.64H18.2138C18.1284 10.2773 18.0858 9.85067 18.0858 9.36C18.0858 8.848 18.1284 8.42133 18.2138 8.08H20.7738C20.8591 8.42133 20.9018 8.848 20.9018 9.36C20.9018 9.85067 20.8591 10.2773 20.7738 10.64C20.8591 10.9813 20.9018 11.408 20.9018 11.92C20.9018 12.4107 20.8591 12.8373 20.7738 13.2C20.8591 13.5413 20.9018 13.968 20.9018 14.48C20.9018 14.9707 20.8591 15.3973 20.7738 15.76C20.8591 16.1013 20.9018 16.528 20.9018 17.04C20.9018 17.5307 20.8591 17.9573 20.7738 18.32C20.8591 18.6613 20.9018 19.088 20.9018 19.6C20.9018 20.0907 20.8591 20.5173 20.7738 20.88C20.8591 21.2213 20.9018 21.648 20.9018 22.16C20.9018 22.6507 20.8591 23.0773 20.7738 23.44H23.3338ZM36.5943 14.48C36.5943 14.9707 36.5516 15.3973 36.4663 15.76H34.8663C34.9516 16.1013 34.9943 16.528 34.9943 17.04C34.9943 17.5307 34.9516 17.9573 34.8663 18.32H36.4663C36.5516 18.6613 36.5943 19.088 36.5943 19.6C36.5943 20.0907 36.5516 20.5173 36.4663 20.88C36.5516 21.2213 36.5943 21.648 36.5943 22.16C36.5943 22.6507 36.5516 23.0773 36.4663 23.44H34.8663C34.9516 23.7813 34.9943 24.208 34.9943 24.72C34.9943 25.2107 34.9516 25.6373 34.8663 26H29.7463C29.6609 25.6373 29.6183 25.2107 29.6183 24.72C29.6183 24.208 29.6609 23.7813 29.7463 23.44H28.1463C28.0609 23.0773 28.0182 22.6507 28.0182 22.16C28.0182 21.648 28.0609 21.2213 28.1463 20.88C28.0609 20.5173 28.0182 20.0907 28.0182 19.6C28.0182 19.088 28.0609 18.6613 28.1463 18.32H29.7463C29.6609 17.9573 29.6183 17.5307 29.6183 17.04C29.6183 16.528 29.6609 16.1013 29.7463 15.76H28.1463C28.0609 15.3973 28.0182 14.9707 28.0182 14.48C28.0182 13.968 28.0609 13.5413 28.1463 13.2C28.0609 12.8373 28.0182 12.4107 28.0182 11.92C28.0182 11.408 28.0609 10.9813 28.1463 10.64H29.7463C29.6609 10.2773 29.6183 9.85067 29.6183 9.36C29.6183 8.848 29.6609 8.42133 29.7463 8.08H34.8663C34.9516 8.42133 34.9943 8.848 34.9943 9.36C34.9943 9.85067 34.9516 10.2773 34.8663 10.64H36.4663C36.5516 10.9813 36.5943 11.408 36.5943 11.92C36.5943 12.4107 36.5516 12.8373 36.4663 13.2C36.5516 13.5413 36.5943 13.968 36.5943 14.48ZM33.9062 15.76C33.8209 15.3973 33.7783 14.9707 33.7783 14.48C33.7783 13.968 33.8209 13.5413 33.9062 13.2C33.8209 12.8373 33.7783 12.4107 33.7783 11.92C33.7783 11.408 33.8209 10.9813 33.9062 10.64H30.7063C30.7916 10.9813 30.8343 11.408 30.8343 11.92C30.8343 12.4107 30.7916 12.8373 30.7063 13.2C30.7916 13.5413 30.8343 13.968 30.8343 14.48C30.8343 14.9707 30.7916 15.3973 30.7063 15.76H33.9062ZM33.9062 20.88C33.8209 20.5173 33.7783 20.0907 33.7783 19.6C33.7783 19.088 33.8209 18.6613 33.9062 18.32H30.7063C30.7916 18.6613 30.8343 19.088 30.8343 19.6C30.8343 20.0907 30.7916 20.5173 30.7063 20.88C30.7916 21.2213 30.8343 21.648 30.8343 22.16C30.8343 22.6507 30.7916 23.0773 30.7063 23.44H33.9062C33.8209 23.0773 33.7783 22.6507 33.7783 22.16C33.7783 21.648 33.8209 21.2213 33.9062 20.88Z" fill="black"/>
<path d="M11.8013 20.88V21.38H12.1973L12.288 20.9945L11.8013 20.88ZM10.5213 20.88V20.38H9.88086L10.0362 21.0013L10.5213 20.88ZM10.5213 23.44L10.0345 23.3255L10.0068 23.4436L10.0362 23.5613L10.5213 23.44ZM10.5213 26V26.5H10.9173L11.008 26.1145L10.5213 26ZM7.96125 26L7.47454 26.1145L7.56524 26.5H7.96125V26ZM7.96125 23.44L8.44632 23.5613L8.47575 23.4436L8.44796 23.3255L7.96125 23.44ZM7.96125 20.88L8.44632 21.0013L8.60164 20.38H7.96125V20.88ZM1.56125 20.88L1.07454 20.9945L1.16524 21.38H1.56125V20.88ZM1.56125 18.32V17.82H1.17086L1.07618 18.1987L1.56125 18.32ZM2.52125 18.32V18.82H3.15255L3.00796 18.2055L2.52125 18.32ZM2.52125 15.76V15.26H2.13086L2.03618 15.6387L2.52125 15.76ZM3.48125 15.76V16.26H4.11255L3.96796 15.6455L3.48125 15.76ZM3.48125 13.2V12.7H3.09086L2.99618 13.0787L3.48125 13.2ZM4.44125 13.2V13.7H5.07255L4.92796 13.0855L4.44125 13.2ZM4.44125 10.64V10.14H4.05086L3.95618 10.5187L4.44125 10.64ZM6.04125 10.64L6.52632 10.5187L6.43164 10.14H6.04125V10.64ZM6.04125 13.2V13.7H6.43726L6.52796 13.3145L6.04125 13.2ZM5.08125 13.2V12.7H4.44086L4.59618 13.3213L5.08125 13.2ZM5.08125 15.76V16.26H5.47726L5.56796 15.8745L5.08125 15.76ZM4.12125 15.76V15.26H3.48086L3.63618 15.8813L4.12125 15.76ZM4.12125 18.32L3.63454 18.2055L3.48995 18.82H4.12125V18.32ZM7.96125 18.32V18.82H8.59255L8.44796 18.2055L7.96125 18.32ZM7.96125 15.76L8.44632 15.8813L8.47575 15.7636L8.44796 15.6455L7.96125 15.76ZM7.96125 13.2L8.44632 13.3213L8.47575 13.2036L8.44796 13.0855L7.96125 13.2ZM7.96125 10.64L8.44632 10.7613L8.60164 10.14H7.96125V10.64ZM6.04125 10.64L5.55454 10.7545L5.64524 11.14H6.04125V10.64ZM6.04125 8.08V7.58H5.65086L5.55618 7.95873L6.04125 8.08ZM10.5213 8.08L11.0063 7.95873L10.9116 7.58H10.5213V8.08ZM10.5213 10.64L10.0345 10.5255L10.0068 10.6436L10.0362 10.7613L10.5213 10.64ZM10.5213 13.2L10.0345 13.0855L10.0068 13.2036L10.0362 13.3213L10.5213 13.2ZM10.5213 15.76L10.0345 15.6455L10.0068 15.7636L10.0362 15.8813L10.5213 15.76ZM10.5213 18.32L10.0345 18.2055L9.88995 18.82H10.5213V18.32ZM11.8013 18.32L12.2863 18.1987L12.1916 17.82H11.8013V18.32ZM11.4293 19.6C11.4293 20.0635 11.3888 20.45 11.3145 20.7655L12.288 20.9945C12.3844 20.5847 12.4293 20.1178 12.4293 19.6H11.4293ZM11.8013 20.38H10.5213V21.38H11.8013V20.38ZM10.0362 21.0013C10.1082 21.2894 10.1493 21.6721 10.1493 22.16H11.1493C11.1493 21.6239 11.1049 21.1532 11.0063 20.7587L10.0362 21.0013ZM10.1493 22.16C10.1493 22.6235 10.1088 23.01 10.0345 23.3255L11.008 23.5545C11.1044 23.1447 11.1493 22.6778 11.1493 22.16H10.1493ZM10.0362 23.5613C10.1082 23.8494 10.1493 24.2321 10.1493 24.72H11.1493C11.1493 24.1839 11.1049 23.7132 11.0063 23.3187L10.0362 23.5613ZM10.1493 24.72C10.1493 25.1835 10.1088 25.57 10.0345 25.8855L11.008 26.1145C11.1044 25.7047 11.1493 25.2378 11.1493 24.72H10.1493ZM10.5213 25.5H7.96125V26.5H10.5213V25.5ZM8.44796 25.8855C8.37373 25.57 8.33325 25.1835 8.33325 24.72H7.33325C7.33325 25.2378 7.3781 25.7047 7.47454 26.1145L8.44796 25.8855ZM8.33325 24.72C8.33325 24.2321 8.37428 23.8494 8.44632 23.5613L7.47618 23.3187C7.37756 23.7132 7.33325 24.1839 7.33325 24.72H8.33325ZM8.44796 23.3255C8.37373 23.01 8.33325 22.6235 8.33325 22.16H7.33325C7.33325 22.6778 7.3781 23.1447 7.47454 23.5545L8.44796 23.3255ZM8.33325 22.16C8.33325 21.6721 8.37428 21.2894 8.44632 21.0013L7.47618 20.7587C7.37756 21.1532 7.33325 21.6239 7.33325 22.16H8.33325ZM7.96125 20.38H1.56125V21.38H7.96125V20.38ZM2.04796 20.7655C1.97373 20.45 1.93325 20.0635 1.93325 19.6H0.93325C0.93325 20.1178 0.978103 20.5847 1.07454 20.9945L2.04796 20.7655ZM1.93325 19.6C1.93325 19.1121 1.97428 18.7294 2.04632 18.4413L1.07618 18.1987C0.977558 18.5932 0.93325 19.0639 0.93325 19.6H1.93325ZM1.56125 18.82H2.52125V17.82H1.56125V18.82ZM3.00796 18.2055C2.93373 17.89 2.89325 17.5035 2.89325 17.04H1.89325C1.89325 17.5578 1.9381 18.0247 2.03454 18.4345L3.00796 18.2055ZM2.89325 17.04C2.89325 16.5521 2.93428 16.1694 3.00632 15.8813L2.03618 15.6387C1.93756 16.0332 1.89325 16.5039 1.89325 17.04H2.89325ZM2.52125 16.26H3.48125V15.26H2.52125V16.26ZM3.96796 15.6455C3.89373 15.33 3.85325 14.9435 3.85325 14.48H2.85325C2.85325 14.9978 2.8981 15.4647 2.99454 15.8745L3.96796 15.6455ZM3.85325 14.48C3.85325 13.9921 3.89428 13.6094 3.96632 13.3213L2.99618 13.0787C2.89756 13.4732 2.85325 13.9439 2.85325 14.48H3.85325ZM3.48125 13.7H4.44125V12.7H3.48125V13.7ZM4.92796 13.0855C4.85373 12.77 4.81325 12.3835 4.81325 11.92H3.81325C3.81325 12.4378 3.8581 12.9047 3.95454 13.3145L4.92796 13.0855ZM4.81325 11.92C4.81325 11.4321 4.85428 11.0494 4.92632 10.7613L3.95618 10.5187C3.85756 10.9132 3.81325 11.3839 3.81325 11.92H4.81325ZM4.44125 11.14H6.04125V10.14H4.44125V11.14ZM5.55618 10.7613C5.62822 11.0494 5.66925 11.4321 5.66925 11.92H6.66925C6.66925 11.3839 6.62494 10.9132 6.52632 10.5187L5.55618 10.7613ZM5.66925 11.92C5.66925 12.3835 5.62877 12.77 5.55454 13.0855L6.52796 13.3145C6.6244 12.9047 6.66925 12.4378 6.66925 11.92H5.66925ZM6.04125 12.7H5.08125V13.7H6.04125V12.7ZM4.59618 13.3213C4.66822 13.6094 4.70925 13.9921 4.70925 14.48H5.70925C5.70925 13.9439 5.66494 13.4732 5.56632 13.0787L4.59618 13.3213ZM4.70925 14.48C4.70925 14.9435 4.66877 15.33 4.59454 15.6455L5.56796 15.8745C5.6644 15.4647 5.70925 14.9978 5.70925 14.48H4.70925ZM5.08125 15.26H4.12125V16.26H5.08125V15.26ZM3.63618 15.8813C3.70822 16.1694 3.74925 16.5521 3.74925 17.04H4.74925C4.74925 16.5039 4.70494 16.0332 4.60632 15.6387L3.63618 15.8813ZM3.74925 17.04C3.74925 17.5035 3.70877 17.89 3.63454 18.2055L4.60796 18.4345C4.7044 18.0247 4.74925 17.5578 4.74925 17.04H3.74925ZM4.12125 18.82H7.96125V17.82H4.12125V18.82ZM8.44796 18.2055C8.37373 17.89 8.33325 17.5035 8.33325 17.04H7.33325C7.33325 17.5578 7.3781 18.0247 7.47454 18.4345L8.44796 18.2055ZM8.33325 17.04C8.33325 16.5521 8.37428 16.1694 8.44632 15.8813L7.47618 15.6387C7.37756 16.0332 7.33325 16.5039 7.33325 17.04H8.33325ZM8.44796 15.6455C8.37373 15.33 8.33325 14.9435 8.33325 14.48H7.33325C7.33325 14.9978 7.3781 15.4647 7.47454 15.8745L8.44796 15.6455ZM8.33325 14.48C8.33325 13.9921 8.37428 13.6094 8.44632 13.3213L7.47618 13.0787C7.37756 13.4732 7.33325 13.9439 7.33325 14.48H8.33325ZM8.44796 13.0855C8.37373 12.77 8.33325 12.3835 8.33325 11.92H7.33325C7.33325 12.4378 7.3781 12.9047 7.47454 13.3145L8.44796 13.0855ZM8.33325 11.92C8.33325 11.4321 8.37428 11.0494 8.44632 10.7613L7.47618 10.5187C7.37756 10.9132 7.33325 11.3839 7.33325 11.92H8.33325ZM7.96125 10.14H6.04125V11.14H7.96125V10.14ZM6.52796 10.5255C6.45373 10.21 6.41325 9.82349 6.41325 9.36H5.41325C5.41325 9.87784 5.4581 10.3447 5.55454 10.7545L6.52796 10.5255ZM6.41325 9.36C6.41325 8.87213 6.45428 8.48945 6.52632 8.20127L5.55618 7.95873C5.45756 8.35322 5.41325 8.82387 5.41325 9.36H6.41325ZM6.04125 8.58H10.5213V7.58H6.04125V8.58ZM10.0362 8.20127C10.1082 8.48945 10.1493 8.87213 10.1493 9.36H11.1493C11.1493 8.82387 11.1049 8.35322 11.0063 7.95873L10.0362 8.20127ZM10.1493 9.36C10.1493 9.82349 10.1088 10.21 10.0345 10.5255L11.008 10.7545C11.1044 10.3447 11.1493 9.87784 11.1493 9.36H10.1493ZM10.0362 10.7613C10.1082 11.0494 10.1493 11.4321 10.1493 11.92H11.1493C11.1493 11.3839 11.1049 10.9132 11.0063 10.5187L10.0362 10.7613ZM10.1493 11.92C10.1493 12.3835 10.1088 12.77 10.0345 13.0855L11.008 13.3145C11.1044 12.9047 11.1493 12.4378 11.1493 11.92H10.1493ZM10.0362 13.3213C10.1082 13.6094 10.1493 13.9921 10.1493 14.48H11.1493C11.1493 13.9439 11.1049 13.4732 11.0063 13.0787L10.0362 13.3213ZM10.1493 14.48C10.1493 14.9435 10.1088 15.33 10.0345 15.6455L11.008 15.8745C11.1044 15.4647 11.1493 14.9978 11.1493 14.48H10.1493ZM10.0362 15.8813C10.1082 16.1694 10.1493 16.5521 10.1493 17.04H11.1493C11.1493 16.5039 11.1049 16.0332 11.0063 15.6387L10.0362 15.8813ZM10.1493 17.04C10.1493 17.5035 10.1088 17.89 10.0345 18.2055L11.008 18.4345C11.1044 18.0247 11.1493 17.5578 11.1493 17.04H10.1493ZM10.5213 18.82H11.8013V17.82H10.5213V18.82ZM11.3162 18.4413C11.3882 18.7295 11.4293 19.1121 11.4293 19.6H12.4293C12.4293 19.0639 12.3849 18.5932 12.2863 18.1987L11.3162 18.4413ZM23.3338 23.44L23.8188 23.3187L23.7241 22.94H23.3338V23.44ZM23.3338 26V26.5H23.7298L23.8205 26.1145L23.3338 26ZM15.6538 26L15.167 26.1145L15.2577 26.5H15.6538V26ZM15.6538 23.44V22.94H15.2634L15.1687 23.3187L15.6538 23.44ZM18.2138 23.44V23.94H18.8451L18.7005 23.3255L18.2138 23.44ZM18.2138 20.88L18.6988 21.0013L18.7282 20.8836L18.7005 20.7655L18.2138 20.88ZM18.2138 18.32L18.6988 18.4413L18.7282 18.3236L18.7005 18.2055L18.2138 18.32ZM18.2138 15.76L18.6988 15.8813L18.7282 15.7636L18.7005 15.6455L18.2138 15.76ZM18.2138 13.2L18.6988 13.3213L18.8541 12.7H18.2138V13.2ZM16.2938 13.2L15.807 13.3145L15.8977 13.7H16.2938V13.2ZM16.2938 10.64V10.14H15.9034L15.8087 10.5187L16.2938 10.64ZM18.2138 10.64V11.14H18.8451L18.7005 10.5255L18.2138 10.64ZM18.2138 8.08V7.58H17.8234L17.7287 7.95873L18.2138 8.08ZM20.7738 8.08L21.2588 7.95873L21.1641 7.58H20.7738V8.08ZM20.7738 10.64L20.287 10.5255L20.2593 10.6436L20.2887 10.7613L20.7738 10.64ZM20.7738 13.2L20.287 13.0855L20.2593 13.2036L20.2887 13.3213L20.7738 13.2ZM20.7738 15.76L20.287 15.6455L20.2593 15.7636L20.2887 15.8813L20.7738 15.76ZM20.7738 18.32L20.287 18.2055L20.2593 18.3236L20.2887 18.4413L20.7738 18.32ZM20.7738 20.88L20.287 20.7655L20.2593 20.8836L20.2887 21.0013L20.7738 20.88ZM20.7738 23.44L20.287 23.3255L20.1424 23.94H20.7738V23.44ZM22.8487 23.5613C22.9207 23.8494 22.9618 24.2321 22.9618 24.72H23.9618C23.9618 24.1839 23.9174 23.7132 23.8188 23.3187L22.8487 23.5613ZM22.9618 24.72C22.9618 25.1835 22.9213 25.57 22.847 25.8855L23.8205 26.1145C23.9169 25.7047 23.9618 25.2378 23.9618 24.72H22.9618ZM23.3338 25.5H15.6538V26.5H23.3338V25.5ZM16.1405 25.8855C16.0662 25.57 16.0257 25.1835 16.0257 24.72H15.0258C15.0258 25.2378 15.0706 25.7047 15.167 26.1145L16.1405 25.8855ZM16.0257 24.72C16.0257 24.2321 16.0668 23.8494 16.1388 23.5613L15.1687 23.3187C15.0701 23.7132 15.0258 24.1839 15.0258 24.72H16.0257ZM15.6538 23.94H18.2138V22.94H15.6538V23.94ZM18.7005 23.3255C18.6262 23.01 18.5858 22.6235 18.5858 22.16H17.5858C17.5858 22.6778 17.6306 23.1447 17.727 23.5545L18.7005 23.3255ZM18.5858 22.16C18.5858 21.6721 18.6268 21.2894 18.6988 21.0013L17.7287 20.7587C17.6301 21.1532 17.5858 21.6239 17.5858 22.16H18.5858ZM18.7005 20.7655C18.6262 20.45 18.5858 20.0635 18.5858 19.6H17.5858C17.5858 20.1178 17.6306 20.5847 17.727 20.9945L18.7005 20.7655ZM18.5858 19.6C18.5858 19.1121 18.6268 18.7295 18.6988 18.4413L17.7287 18.1987C17.6301 18.5932 17.5858 19.0639 17.5858 19.6H18.5858ZM18.7005 18.2055C18.6262 17.89 18.5858 17.5035 18.5858 17.04H17.5858C17.5858 17.5578 17.6306 18.0247 17.727 18.4345L18.7005 18.2055ZM18.5858 17.04C18.5858 16.5521 18.6268 16.1694 18.6988 15.8813L17.7287 15.6387C17.6301 16.0332 17.5858 16.5039 17.5858 17.04H18.5858ZM18.7005 15.6455C18.6262 15.33 18.5858 14.9435 18.5858 14.48H17.5858C17.5858 14.9978 17.6306 15.4647 17.727 15.8745L18.7005 15.6455ZM18.5858 14.48C18.5858 13.9921 18.6268 13.6094 18.6988 13.3213L17.7287 13.0787C17.6301 13.4732 17.5858 13.9439 17.5858 14.48H18.5858ZM18.2138 12.7H16.2938V13.7H18.2138V12.7ZM16.7805 13.0855C16.7062 12.77 16.6658 12.3835 16.6658 11.92H15.6658C15.6658 12.4378 15.7106 12.9047 15.807 13.3145L16.7805 13.0855ZM16.6658 11.92C16.6658 11.4321 16.7068 11.0494 16.7788 10.7613L15.8087 10.5187C15.7101 10.9132 15.6658 11.3839 15.6658 11.92H16.6658ZM16.2938 11.14H18.2138V10.14H16.2938V11.14ZM18.7005 10.5255C18.6262 10.21 18.5858 9.82349 18.5858 9.36H17.5858C17.5858 9.87784 17.6306 10.3447 17.727 10.7545L18.7005 10.5255ZM18.5858 9.36C18.5858 8.87213 18.6268 8.48945 18.6988 8.20127L17.7287 7.95873C17.6301 8.35322 17.5858 8.82387 17.5858 9.36H18.5858ZM18.2138 8.58H20.7738V7.58H18.2138V8.58ZM20.2887 8.20127C20.3607 8.48945 20.4018 8.87213 20.4018 9.36H21.4018C21.4018 8.82387 21.3574 8.35322 21.2588 7.95873L20.2887 8.20127ZM20.4018 9.36C20.4018 9.82349 20.3613 10.21 20.287 10.5255L21.2605 10.7545C21.3569 10.3447 21.4018 9.87784 21.4018 9.36H20.4018ZM20.2887 10.7613C20.3607 11.0494 20.4018 11.4321 20.4018 11.92H21.4018C21.4018 11.3839 21.3574 10.9132 21.2588 10.5187L20.2887 10.7613ZM20.4018 11.92C20.4018 12.3835 20.3613 12.77 20.287 13.0855L21.2605 13.3145C21.3569 12.9047 21.4018 12.4378 21.4018 11.92H20.4018ZM20.2887 13.3213C20.3607 13.6094 20.4018 13.9921 20.4018 14.48H21.4018C21.4018 13.9439 21.3574 13.4732 21.2588 13.0787L20.2887 13.3213ZM20.4018 14.48C20.4018 14.9435 20.3613 15.33 20.287 15.6455L21.2605 15.8745C21.3569 15.4647 21.4018 14.9978 21.4018 14.48H20.4018ZM20.2887 15.8813C20.3607 16.1694 20.4018 16.5521 20.4018 17.04H21.4018C21.4018 16.5039 21.3574 16.0332 21.2588 15.6387L20.2887 15.8813ZM20.4018 17.04C20.4018 17.5035 20.3613 17.89 20.287 18.2055L21.2605 18.4345C21.3569 18.0247 21.4018 17.5578 21.4018 17.04H20.4018ZM20.2887 18.4413C20.3607 18.7295 20.4018 19.1121 20.4018 19.6H21.4018C21.4018 19.0639 21.3574 18.5932 21.2588 18.1987L20.2887 18.4413ZM20.4018 19.6C20.4018 20.0635 20.3613 20.45 20.287 20.7655L21.2605 20.9945C21.3569 20.5847 21.4018 20.1178 21.4018 19.6H20.4018ZM20.2887 21.0013C20.3607 21.2894 20.4018 21.6721 20.4018 22.16H21.4018C21.4018 21.6239 21.3574 21.1532 21.2588 20.7587L20.2887 21.0013ZM20.4018 22.16C20.4018 22.6235 20.3613 23.01 20.287 23.3255L21.2605 23.5545C21.3569 23.1447 21.4018 22.6778 21.4018 22.16H20.4018ZM20.7738 23.94H23.3338V22.94H20.7738V23.94ZM36.4663 15.76V16.26H36.8623L36.953 15.8745L36.4663 15.76ZM34.8662 15.76V15.26H34.2259L34.3812 15.8813L34.8662 15.76ZM34.8662 18.32L34.3795 18.2055L34.2349 18.82H34.8662V18.32ZM36.4663 18.32L36.9513 18.1987L36.8566 17.82H36.4663V18.32ZM36.4663 20.88L35.9795 20.7655L35.9518 20.8836L35.9812 21.0013L36.4663 20.88ZM36.4663 23.44V23.94H36.8623L36.953 23.5545L36.4663 23.44ZM34.8662 23.44V22.94H34.2259L34.3812 23.5613L34.8662 23.44ZM34.8662 26V26.5H35.2623L35.353 26.1145L34.8662 26ZM29.7463 26L29.2595 26.1145L29.3502 26.5H29.7463V26ZM29.7463 23.44L30.2313 23.5613L30.3866 22.94H29.7463V23.44ZM28.1462 23.44L27.6595 23.5545L27.7502 23.94H28.1462V23.44ZM28.1462 20.88L28.6313 21.0013L28.6607 20.8836L28.633 20.7655L28.1462 20.88ZM28.1462 18.32V17.82H27.7559L27.6612 18.1987L28.1462 18.32ZM29.7463 18.32V18.82H30.3776L30.233 18.2055L29.7463 18.32ZM29.7463 15.76L30.2313 15.8813L30.3866 15.26H29.7463V15.76ZM28.1462 15.76L27.6595 15.8745L27.7502 16.26H28.1462V15.76ZM28.1462 13.2L28.6313 13.3213L28.6607 13.2036L28.633 13.0855L28.1462 13.2ZM28.1462 10.64V10.14H27.7559L27.6612 10.5187L28.1462 10.64ZM29.7463 10.64V11.14H30.3776L30.233 10.5255L29.7463 10.64ZM29.7463 8.08V7.58H29.3559L29.2612 7.95873L29.7463 8.08ZM34.8662 8.08L35.3513 7.95873L35.2566 7.58H34.8662V8.08ZM34.8662 10.64L34.3795 10.5255L34.2349 11.14H34.8662V10.64ZM36.4663 10.64L36.9513 10.5187L36.8566 10.14H36.4663V10.64ZM36.4663 13.2L35.9795 13.0855L35.9518 13.2036L35.9812 13.3213L36.4663 13.2ZM33.9062 15.76V16.26H34.5376L34.393 15.6455L33.9062 15.76ZM33.9062 13.2L34.3913 13.3213L34.4207 13.2036L34.393 13.0855L33.9062 13.2ZM33.9062 10.64L34.3913 10.7613L34.5466 10.14H33.9062V10.64ZM30.7062 10.64V10.14H30.0659L30.2212 10.7613L30.7062 10.64ZM30.7062 13.2L30.2195 13.0855L30.1918 13.2036L30.2212 13.3213L30.7062 13.2ZM30.7062 15.76L30.2195 15.6455L30.0749 16.26H30.7062V15.76ZM33.9062 20.88L34.3913 21.0013L34.4207 20.8836L34.393 20.7655L33.9062 20.88ZM33.9062 18.32L34.3913 18.4413L34.5466 17.82H33.9062V18.32ZM30.7062 18.32V17.82H30.0659L30.2212 18.4413L30.7062 18.32ZM30.7062 20.88L30.2195 20.7655L30.1918 20.8836L30.2212 21.0013L30.7062 20.88ZM30.7062 23.44L30.2195 23.3255L30.0749 23.94H30.7062V23.44ZM33.9062 23.44V23.94H34.5376L34.393 23.3255L33.9062 23.44ZM36.0942 14.48C36.0942 14.9435 36.0538 15.33 35.9795 15.6455L36.953 15.8745C37.0494 15.4647 37.0942 14.9978 37.0942 14.48H36.0942ZM36.4663 15.26H34.8662V16.26H36.4663V15.26ZM34.3812 15.8813C34.4532 16.1694 34.4943 16.5521 34.4943 17.04H35.4943C35.4943 16.5039 35.4499 16.0332 35.3513 15.6387L34.3812 15.8813ZM34.4943 17.04C34.4943 17.5035 34.4538 17.89 34.3795 18.2055L35.353 18.4345C35.4494 18.0247 35.4943 17.5578 35.4943 17.04H34.4943ZM34.8662 18.82H36.4663V17.82H34.8662V18.82ZM35.9812 18.4413C36.0532 18.7295 36.0942 19.1121 36.0942 19.6H37.0942C37.0942 19.0639 37.0499 18.5932 36.9513 18.1987L35.9812 18.4413ZM36.0942 19.6C36.0942 20.0635 36.0538 20.45 35.9795 20.7655L36.953 20.9945C37.0494 20.5847 37.0942 20.1178 37.0942 19.6H36.0942ZM35.9812 21.0013C36.0532 21.2894 36.0942 21.6721 36.0942 22.16H37.0942C37.0942 21.6239 37.0499 21.1532 36.9513 20.7587L35.9812 21.0013ZM36.0942 22.16C36.0942 22.6235 36.0538 23.01 35.9795 23.3255L36.953 23.5545C37.0494 23.1447 37.0942 22.6778 37.0942 22.16H36.0942ZM36.4663 22.94H34.8662V23.94H36.4663V22.94ZM34.3812 23.5613C34.4532 23.8494 34.4943 24.2321 34.4943 24.72H35.4943C35.4943 24.1839 35.4499 23.7132 35.3513 23.3187L34.3812 23.5613ZM34.4943 24.72C34.4943 25.1835 34.4538 25.57 34.3795 25.8855L35.353 26.1145C35.4494 25.7047 35.4943 25.2378 35.4943 24.72H34.4943ZM34.8662 25.5H29.7463V26.5H34.8662V25.5ZM30.233 25.8855C30.1587 25.57 30.1182 25.1835 30.1182 24.72H29.1182C29.1182 25.2378 29.1631 25.7047 29.2595 26.1145L30.233 25.8855ZM30.1182 24.72C30.1182 24.2321 30.1593 23.8494 30.2313 23.5613L29.2612 23.3187C29.1626 23.7132 29.1182 24.1839 29.1182 24.72H30.1182ZM29.7463 22.94H28.1462V23.94H29.7463V22.94ZM28.633 23.3255C28.5587 23.01 28.5182 22.6235 28.5182 22.16H27.5182C27.5182 22.6778 27.5631 23.1447 27.6595 23.5545L28.633 23.3255ZM28.5182 22.16C28.5182 21.6721 28.5593 21.2894 28.6313 21.0013L27.6612 20.7587C27.5626 21.1532 27.5182 21.6239 27.5182 22.16H28.5182ZM28.633 20.7655C28.5587 20.45 28.5182 20.0635 28.5182 19.6H27.5182C27.5182 20.1178 27.5631 20.5847 27.6595 20.9945L28.633 20.7655ZM28.5182 19.6C28.5182 19.1121 28.5593 18.7294 28.6313 18.4413L27.6612 18.1987C27.5626 18.5932 27.5182 19.0639 27.5182 19.6H28.5182ZM28.1462 18.82H29.7463V17.82H28.1462V18.82ZM30.233 18.2055C30.1587 17.89 30.1182 17.5035 30.1182 17.04H29.1182C29.1182 17.5578 29.1631 18.0247 29.2595 18.4345L30.233 18.2055ZM30.1182 17.04C30.1182 16.5521 30.1593 16.1694 30.2313 15.8813L29.2612 15.6387C29.1626 16.0332 29.1182 16.5039 29.1182 17.04H30.1182ZM29.7463 15.26H28.1462V16.26H29.7463V15.26ZM28.633 15.6455C28.5587 15.33 28.5182 14.9435 28.5182 14.48H27.5182C27.5182 14.9978 27.5631 15.4647 27.6595 15.8745L28.633 15.6455ZM28.5182 14.48C28.5182 13.9921 28.5593 13.6094 28.6313 13.3213L27.6612 13.0787C27.5626 13.4732 27.5182 13.9439 27.5182 14.48H28.5182ZM28.633 13.0855C28.5587 12.77 28.5182 12.3835 28.5182 11.92H27.5182C27.5182 12.4378 27.5631 12.9047 27.6595 13.3145L28.633 13.0855ZM28.5182 11.92C28.5182 11.4321 28.5593 11.0494 28.6313 10.7613L27.6612 10.5187C27.5626 10.9132 27.5182 11.3839 27.5182 11.92H28.5182ZM28.1462 11.14H29.7463V10.14H28.1462V11.14ZM30.233 10.5255C30.1587 10.21 30.1182 9.82349 30.1182 9.36H29.1182C29.1182 9.87784 29.1631 10.3447 29.2595 10.7545L30.233 10.5255ZM30.1182 9.36C30.1182 8.87213 30.1593 8.48945 30.2313 8.20127L29.2612 7.95873C29.1626 8.35322 29.1182 8.82387 29.1182 9.36H30.1182ZM29.7463 8.58H34.8662V7.58H29.7463V8.58ZM34.3812 8.20127C34.4532 8.48945 34.4943 8.87213 34.4943 9.36H35.4943C35.4943 8.82387 35.4499 8.35322 35.3513 7.95873L34.3812 8.20127ZM34.4943 9.36C34.4943 9.82349 34.4538 10.21 34.3795 10.5255L35.353 10.7545C35.4494 10.3447 35.4943 9.87784 35.4943 9.36H34.4943ZM34.8662 11.14H36.4663V10.14H34.8662V11.14ZM35.9812 10.7613C36.0532 11.0494 36.0942 11.4321 36.0942 11.92H37.0942C37.0942 11.3839 37.0499 10.9132 36.9513 10.5187L35.9812 10.7613ZM36.0942 11.92C36.0942 12.3835 36.0538 12.77 35.9795 13.0855L36.953 13.3145C37.0494 12.9047 37.0942 12.4378 37.0942 11.92H36.0942ZM35.9812 13.3213C36.0532 13.6094 36.0942 13.9921 36.0942 14.48H37.0942C37.0942 13.9439 37.0499 13.4732 36.9513 13.0787L35.9812 13.3213ZM34.393 15.6455C34.3187 15.33 34.2783 14.9435 34.2783 14.48H33.2783C33.2783 14.9978 33.3231 15.4647 33.4195 15.8745L34.393 15.6455ZM34.2783 14.48C34.2783 13.9921 34.3193 13.6094 34.3913 13.3213L33.4212 13.0787C33.3226 13.4732 33.2783 13.9439 33.2783 14.48H34.2783ZM34.393 13.0855C34.3187 12.77 34.2783 12.3835 34.2783 11.92H33.2783C33.2783 12.4378 33.3231 12.9047 33.4195 13.3145L34.393 13.0855ZM34.2783 11.92C34.2783 11.4321 34.3193 11.0494 34.3913 10.7613L33.4212 10.5187C33.3226 10.9132 33.2783 11.3839 33.2783 11.92H34.2783ZM33.9062 10.14H30.7062V11.14H33.9062V10.14ZM30.2212 10.7613C30.2932 11.0494 30.3343 11.4321 30.3343 11.92H31.3343C31.3343 11.3839 31.2899 10.9132 31.1913 10.5187L30.2212 10.7613ZM30.3343 11.92C30.3343 12.3835 30.2938 12.77 30.2195 13.0855L31.193 13.3145C31.2894 12.9047 31.3343 12.4378 31.3343 11.92H30.3343ZM30.2212 13.3213C30.2932 13.6094 30.3343 13.9921 30.3343 14.48H31.3343C31.3343 13.9439 31.2899 13.4732 31.1913 13.0787L30.2212 13.3213ZM30.3343 14.48C30.3343 14.9435 30.2938 15.33 30.2195 15.6455L31.193 15.8745C31.2894 15.4647 31.3343 14.9978 31.3343 14.48H30.3343ZM30.7062 16.26H33.9062V15.26H30.7062V16.26ZM34.393 20.7655C34.3187 20.45 34.2783 20.0635 34.2783 19.6H33.2783C33.2783 20.1178 33.3231 20.5847 33.4195 20.9945L34.393 20.7655ZM34.2783 19.6C34.2783 19.1121 34.3193 18.7294 34.3913 18.4413L33.4212 18.1987C33.3226 18.5932 33.2783 19.0639 33.2783 19.6H34.2783ZM33.9062 17.82H30.7062V18.82H33.9062V17.82ZM30.2212 18.4413C30.2932 18.7295 30.3343 19.1121 30.3343 19.6H31.3343C31.3343 19.0639 31.2899 18.5932 31.1913 18.1987L30.2212 18.4413ZM30.3343 19.6C30.3343 20.0635 30.2938 20.45 30.2195 20.7655L31.193 20.9945C31.2894 20.5847 31.3343 20.1178 31.3343 19.6H30.3343ZM30.2212 21.0013C30.2932 21.2894 30.3343 21.6721 30.3343 22.16H31.3343C31.3343 21.6239 31.2899 21.1532 31.1913 20.7587L30.2212 21.0013ZM30.3343 22.16C30.3343 22.6235 30.2938 23.01 30.2195 23.3255L31.193 23.5545C31.2894 23.1447 31.3343 22.6778 31.3343 22.16H30.3343ZM30.7062 23.94H33.9062V22.94H30.7062V23.94ZM34.393 23.3255C34.3187 23.01 34.2783 22.6235 34.2783 22.16H33.2783C33.2783 22.6778 33.3231 23.1447 33.4195 23.5545L34.393 23.3255ZM34.2783 22.16C34.2783 21.6721 34.3193 21.2894 34.3913 21.0013L33.4212 20.7587C33.3226 21.1532 33.2783 21.6239 33.2783 22.16H34.2783Z" fill="black" mask="url(#path-1-outside-1_13_80)"/>
<mask id="path-3-outside-2_13_80" maskUnits="userSpaceOnUse" x="42" y="7" width="63" height="20" fill="black">
<rect fill="white" x="42" y="7" width="63" height="20"/>
<path d="M52.9888 15.76C53.0741 16.1013 53.1168 16.528 53.1168 17.04C53.1168 17.5307 53.0741 17.9573 52.9888 18.32C53.0741 18.6613 53.1168 19.088 53.1168 19.6C53.1168 20.0907 53.0741 20.5173 52.9888 20.88C53.0741 21.2213 53.1168 21.648 53.1168 22.16C53.1168 22.6507 53.0741 23.0773 52.9888 23.44H51.7088C51.7941 23.7813 51.8368 24.208 51.8368 24.72C51.8368 25.2107 51.7941 25.6373 51.7088 26H45.3088C45.2234 25.6373 45.1808 25.2107 45.1808 24.72C45.1808 24.208 45.2234 23.7813 45.3088 23.44H44.0288C43.9434 23.0773 43.9008 22.6507 43.9008 22.16C43.9008 21.648 43.9434 21.2213 44.0288 20.88H42.7488C42.6634 20.5173 42.6208 20.0907 42.6208 19.6C42.6208 19.088 42.6634 18.6613 42.7488 18.32C42.6634 17.9573 42.6208 17.5307 42.6208 17.04C42.6208 16.528 42.6634 16.1013 42.7488 15.76C42.6634 15.3973 42.6208 14.9707 42.6208 14.48C42.6208 13.968 42.6634 13.5413 42.7488 13.2H44.0288C43.9434 12.8373 43.9008 12.4107 43.9008 11.92C43.9008 11.408 43.9434 10.9813 44.0288 10.64H45.3088C45.2234 10.2773 45.1808 9.85067 45.1808 9.36C45.1808 8.848 45.2234 8.42133 45.3088 8.08H51.7088C51.7941 8.42133 51.8368 8.848 51.8368 9.36C51.8368 9.85067 51.7941 10.2773 51.7088 10.64H52.9888C53.0741 10.9813 53.1168 11.408 53.1168 11.92C53.1168 12.4107 53.0741 12.8373 52.9888 13.2H50.4288C50.3434 12.8373 50.3008 12.4107 50.3008 11.92C50.3008 11.408 50.3434 10.9813 50.4288 10.64H46.5888C46.6741 10.9813 46.7168 11.408 46.7168 11.92C46.7168 12.4107 46.6741 12.8373 46.5888 13.2H45.3088C45.3941 13.5413 45.4368 13.968 45.4368 14.48C45.4368 14.9707 45.3941 15.3973 45.3088 15.76C45.3941 16.1013 45.4368 16.528 45.4368 17.04C45.4368 17.5307 45.3941 17.9573 45.3088 18.32C45.3941 18.6613 45.4368 19.088 45.4368 19.6C45.4368 20.0907 45.3941 20.5173 45.3088 20.88H46.5888C46.6741 21.2213 46.7168 21.648 46.7168 22.16C46.7168 22.6507 46.6741 23.0773 46.5888 23.44H50.4288C50.3434 23.0773 50.3008 22.6507 50.3008 22.16C50.3008 21.648 50.3434 21.2213 50.4288 20.88C50.3434 20.5173 50.3008 20.0907 50.3008 19.6C50.3008 19.088 50.3434 18.6613 50.4288 18.32H48.5088C48.4234 17.9573 48.3808 17.5307 48.3808 17.04C48.3808 16.528 48.4234 16.1013 48.5088 15.76H52.9888ZM65.8013 23.44C65.8866 23.7813 65.9293 24.208 65.9293 24.72C65.9293 25.2107 65.8866 25.6373 65.8013 26H63.2413C63.1559 25.6373 63.1133 25.2107 63.1133 24.72C63.1133 24.208 63.1559 23.7813 63.2413 23.44H62.2812C62.1959 23.0773 62.1533 22.6507 62.1533 22.16C62.1533 21.648 62.1959 21.2213 62.2812 20.88H61.3213C61.2359 20.5173 61.1933 20.0907 61.1933 19.6C61.1933 19.088 61.2359 18.6613 61.3213 18.32H58.1213C58.2066 18.6613 58.2493 19.088 58.2493 19.6C58.2493 20.0907 58.2066 20.5173 58.1213 20.88C58.2066 21.2213 58.2493 21.648 58.2493 22.16C58.2493 22.6507 58.2066 23.0773 58.1213 23.44C58.2066 23.7813 58.2493 24.208 58.2493 24.72C58.2493 25.2107 58.2066 25.6373 58.1213 26H55.5613C55.4759 25.6373 55.4333 25.2107 55.4333 24.72C55.4333 24.208 55.4759 23.7813 55.5613 23.44C55.4759 23.0773 55.4333 22.6507 55.4333 22.16C55.4333 21.648 55.4759 21.2213 55.5613 20.88C55.4759 20.5173 55.4333 20.0907 55.4333 19.6C55.4333 19.088 55.4759 18.6613 55.5613 18.32C55.4759 17.9573 55.4333 17.5307 55.4333 17.04C55.4333 16.528 55.4759 16.1013 55.5613 15.76C55.4759 15.3973 55.4333 14.9707 55.4333 14.48C55.4333 13.968 55.4759 13.5413 55.5613 13.2C55.4759 12.8373 55.4333 12.4107 55.4333 11.92C55.4333 11.408 55.4759 10.9813 55.5613 10.64C55.4759 10.2773 55.4333 9.85067 55.4333 9.36C55.4333 8.848 55.4759 8.42133 55.5613 8.08H64.5213C64.6066 8.42133 64.6493 8.848 64.6493 9.36C64.6493 9.85067 64.6066 10.2773 64.5213 10.64H65.8013C65.8866 10.9813 65.9293 11.408 65.9293 11.92C65.9293 12.4107 65.8866 12.8373 65.8013 13.2H65.1613C65.2466 13.5413 65.2893 13.968 65.2893 14.48C65.2893 14.9707 65.2466 15.3973 65.1613 15.76H63.2413C63.3266 16.1013 63.3693 16.528 63.3693 17.04C63.3693 17.5307 63.3266 17.9573 63.2413 18.32H63.8813C63.9666 18.6613 64.0093 19.088 64.0093 19.6C64.0093 20.0907 63.9666 20.5173 63.8813 20.88H64.8413C64.9266 21.2213 64.9693 21.648 64.9693 22.16C64.9693 22.6507 64.9266 23.0773 64.8413 23.44H65.8013ZM62.6013 15.76C62.5159 15.3973 62.4733 14.9707 62.4733 14.48C62.4733 13.968 62.5159 13.5413 62.6013 13.2C62.5159 12.8373 62.4733 12.4107 62.4733 11.92C62.4733 11.408 62.5159 10.9813 62.6013 10.64H58.1213C58.2066 10.9813 58.2493 11.408 58.2493 11.92C58.2493 12.4107 58.2066 12.8373 58.1213 13.2C58.2066 13.5413 58.2493 13.968 58.2493 14.48C58.2493 14.9707 58.2066 15.3973 58.1213 15.76H62.6013ZM72.2138 18.32C72.2991 18.6613 72.3418 19.088 72.3418 19.6C72.3418 20.0907 72.2991 20.5173 72.2138 20.88C72.2991 21.2213 72.3418 21.648 72.3418 22.16C72.3418 22.6507 72.2991 23.0773 72.2138 23.44H77.3338C77.4191 23.7813 77.4618 24.208 77.4618 24.72C77.4618 25.2107 77.4191 25.6373 77.3338 26H69.6538C69.5684 25.6373 69.5258 25.2107 69.5258 24.72C69.5258 24.208 69.5684 23.7813 69.6538 23.44C69.5684 23.0773 69.5258 22.6507 69.5258 22.16C69.5258 21.648 69.5684 21.2213 69.6538 20.88C69.5684 20.5173 69.5258 20.0907 69.5258 19.6C69.5258 19.088 69.5684 18.6613 69.6538 18.32C69.5684 17.9573 69.5258 17.5307 69.5258 17.04C69.5258 16.528 69.5684 16.1013 69.6538 15.76C69.5684 15.3973 69.5258 14.9707 69.5258 14.48C69.5258 13.968 69.5684 13.5413 69.6538 13.2C69.5684 12.8373 69.5258 12.4107 69.5258 11.92C69.5258 11.408 69.5684 10.9813 69.6538 10.64C69.5684 10.2773 69.5258 9.85067 69.5258 9.36C69.5258 8.848 69.5684 8.42133 69.6538 8.08H77.3338C77.4191 8.42133 77.4618 8.848 77.4618 9.36C77.4618 9.85067 77.4191 10.2773 77.3338 10.64H72.2138C72.2991 10.9813 72.3418 11.408 72.3418 11.92C72.3418 12.4107 72.2991 12.8373 72.2138 13.2C72.2991 13.5413 72.3418 13.968 72.3418 14.48C72.3418 14.9707 72.2991 15.3973 72.2138 15.76H77.3338C77.4191 16.1013 77.4618 16.528 77.4618 17.04C77.4618 17.5307 77.4191 17.9573 77.3338 18.32H72.2138ZM85.0263 18.32C85.1116 18.6613 85.1543 19.088 85.1543 19.6C85.1543 20.0907 85.1116 20.5173 85.0263 20.88C85.1116 21.2213 85.1543 21.648 85.1543 22.16C85.1543 22.6507 85.1116 23.0773 85.0263 23.44H90.1463C90.2316 23.7813 90.2743 24.208 90.2743 24.72C90.2743 25.2107 90.2316 25.6373 90.1463 26H82.4663C82.3809 25.6373 82.3383 25.2107 82.3383 24.72C82.3383 24.208 82.3809 23.7813 82.4663 23.44C82.3809 23.0773 82.3383 22.6507 82.3383 22.16C82.3383 21.648 82.3809 21.2213 82.4663 20.88C82.3809 20.5173 82.3383 20.0907 82.3383 19.6C82.3383 19.088 82.3809 18.6613 82.4663 18.32C82.3809 17.9573 82.3383 17.5307 82.3383 17.04C82.3383 16.528 82.3809 16.1013 82.4663 15.76C82.3809 15.3973 82.3383 14.9707 82.3383 14.48C82.3383 13.968 82.3809 13.5413 82.4663 13.2C82.3809 12.8373 82.3383 12.4107 82.3383 11.92C82.3383 11.408 82.3809 10.9813 82.4663 10.64C82.3809 10.2773 82.3383 9.85067 82.3383 9.36C82.3383 8.848 82.3809 8.42133 82.4663 8.08H90.1463C90.2316 8.42133 90.2743 8.848 90.2743 9.36C90.2743 9.85067 90.2316 10.2773 90.1463 10.64H85.0263C85.1116 10.9813 85.1543 11.408 85.1543 11.92C85.1543 12.4107 85.1116 12.8373 85.0263 13.2C85.1116 13.5413 85.1543 13.968 85.1543 14.48C85.1543 14.9707 85.1116 15.3973 85.0263 15.76H90.1463C90.2316 16.1013 90.2743 16.528 90.2743 17.04C90.2743 17.5307 90.2316 17.9573 90.1463 18.32H85.0263ZM104.239 10.64C104.324 10.9813 104.367 11.408 104.367 11.92C104.367 12.4107 104.324 12.8373 104.239 13.2C104.324 13.5413 104.367 13.968 104.367 14.48C104.367 14.9707 104.324 15.3973 104.239 15.76C104.324 16.1013 104.367 16.528 104.367 17.04C104.367 17.5307 104.324 17.9573 104.239 18.32C104.324 18.6613 104.367 19.088 104.367 19.6C104.367 20.0907 104.324 20.5173 104.239 20.88C104.324 21.2213 104.367 21.648 104.367 22.16C104.367 22.6507 104.324 23.0773 104.239 23.44C104.324 23.7813 104.367 24.208 104.367 24.72C104.367 25.2107 104.324 25.6373 104.239 26H101.679C101.593 25.6373 101.551 25.2107 101.551 24.72C101.551 24.208 101.593 23.7813 101.679 23.44H100.079C99.9934 23.0773 99.9508 22.6507 99.9508 22.16C99.9508 21.648 99.9934 21.2213 100.079 20.88H99.1188C99.0334 20.5173 98.9908 20.0907 98.9908 19.6C98.9908 19.088 99.0334 18.6613 99.1188 18.32H97.8388C97.7534 17.9573 97.7108 17.5307 97.7108 17.04C97.7108 16.528 97.7534 16.1013 97.8388 15.76H96.5588C96.6441 16.1013 96.6868 16.528 96.6868 17.04C96.6868 17.5307 96.6441 17.9573 96.5588 18.32C96.6441 18.6613 96.6868 19.088 96.6868 19.6C96.6868 20.0907 96.6441 20.5173 96.5588 20.88C96.6441 21.2213 96.6868 21.648 96.6868 22.16C96.6868 22.6507 96.6441 23.0773 96.5588 23.44C96.6441 23.7813 96.6868 24.208 96.6868 24.72C96.6868 25.2107 96.6441 25.6373 96.5588 26H93.9988C93.9134 25.6373 93.8708 25.2107 93.8708 24.72C93.8708 24.208 93.9134 23.7813 93.9988 23.44C93.9134 23.0773 93.8708 22.6507 93.8708 22.16C93.8708 21.648 93.9134 21.2213 93.9988 20.88C93.9134 20.5173 93.8708 20.0907 93.8708 19.6C93.8708 19.088 93.9134 18.6613 93.9988 18.32C93.9134 17.9573 93.8708 17.5307 93.8708 17.04C93.8708 16.528 93.9134 16.1013 93.9988 15.76C93.9134 15.3973 93.8708 14.9707 93.8708 14.48C93.8708 13.968 93.9134 13.5413 93.9988 13.2C93.9134 12.8373 93.8708 12.4107 93.8708 11.92C93.8708 11.408 93.9134 10.9813 93.9988 10.64C93.9134 10.2773 93.8708 9.85067 93.8708 9.36C93.8708 8.848 93.9134 8.42133 93.9988 8.08H97.1988C97.2841 8.42133 97.3268 8.848 97.3268 9.36C97.3268 9.85067 97.2841 10.2773 97.1988 10.64H98.1588C98.2441 10.9813 98.2868 11.408 98.2868 11.92C98.2868 12.4107 98.2441 12.8373 98.1588 13.2H99.1188C99.2041 13.5413 99.2468 13.968 99.2468 14.48C99.2468 14.9707 99.2041 15.3973 99.1188 15.76H100.399C100.484 16.1013 100.527 16.528 100.527 17.04C100.527 17.5307 100.484 17.9573 100.399 18.32H101.679C101.593 17.9573 101.551 17.5307 101.551 17.04C101.551 16.528 101.593 16.1013 101.679 15.76C101.593 15.3973 101.551 14.9707 101.551 14.48C101.551 13.968 101.593 13.5413 101.679 13.2C101.593 12.8373 101.551 12.4107 101.551 11.92C101.551 11.408 101.593 10.9813 101.679 10.64C101.593 10.2773 101.551 9.85067 101.551 9.36C101.551 8.848 101.593 8.42133 101.679 8.08H104.239C104.324 8.42133 104.367 8.848 104.367 9.36C104.367 9.85067 104.324 10.2773 104.239 10.64Z"/>
</mask>
<path d="M52.9888 15.76C53.0741 16.1013 53.1168 16.528 53.1168 17.04C53.1168 17.5307 53.0741 17.9573 52.9888 18.32C53.0741 18.6613 53.1168 19.088 53.1168 19.6C53.1168 20.0907 53.0741 20.5173 52.9888 20.88C53.0741 21.2213 53.1168 21.648 53.1168 22.16C53.1168 22.6507 53.0741 23.0773 52.9888 23.44H51.7088C51.7941 23.7813 51.8368 24.208 51.8368 24.72C51.8368 25.2107 51.7941 25.6373 51.7088 26H45.3088C45.2234 25.6373 45.1808 25.2107 45.1808 24.72C45.1808 24.208 45.2234 23.7813 45.3088 23.44H44.0288C43.9434 23.0773 43.9008 22.6507 43.9008 22.16C43.9008 21.648 43.9434 21.2213 44.0288 20.88H42.7488C42.6634 20.5173 42.6208 20.0907 42.6208 19.6C42.6208 19.088 42.6634 18.6613 42.7488 18.32C42.6634 17.9573 42.6208 17.5307 42.6208 17.04C42.6208 16.528 42.6634 16.1013 42.7488 15.76C42.6634 15.3973 42.6208 14.9707 42.6208 14.48C42.6208 13.968 42.6634 13.5413 42.7488 13.2H44.0288C43.9434 12.8373 43.9008 12.4107 43.9008 11.92C43.9008 11.408 43.9434 10.9813 44.0288 10.64H45.3088C45.2234 10.2773 45.1808 9.85067 45.1808 9.36C45.1808 8.848 45.2234 8.42133 45.3088 8.08H51.7088C51.7941 8.42133 51.8368 8.848 51.8368 9.36C51.8368 9.85067 51.7941 10.2773 51.7088 10.64H52.9888C53.0741 10.9813 53.1168 11.408 53.1168 11.92C53.1168 12.4107 53.0741 12.8373 52.9888 13.2H50.4288C50.3434 12.8373 50.3008 12.4107 50.3008 11.92C50.3008 11.408 50.3434 10.9813 50.4288 10.64H46.5888C46.6741 10.9813 46.7168 11.408 46.7168 11.92C46.7168 12.4107 46.6741 12.8373 46.5888 13.2H45.3088C45.3941 13.5413 45.4368 13.968 45.4368 14.48C45.4368 14.9707 45.3941 15.3973 45.3088 15.76C45.3941 16.1013 45.4368 16.528 45.4368 17.04C45.4368 17.5307 45.3941 17.9573 45.3088 18.32C45.3941 18.6613 45.4368 19.088 45.4368 19.6C45.4368 20.0907 45.3941 20.5173 45.3088 20.88H46.5888C46.6741 21.2213 46.7168 21.648 46.7168 22.16C46.7168 22.6507 46.6741 23.0773 46.5888 23.44H50.4288C50.3434 23.0773 50.3008 22.6507 50.3008 22.16C50.3008 21.648 50.3434 21.2213 50.4288 20.88C50.3434 20.5173 50.3008 20.0907 50.3008 19.6C50.3008 19.088 50.3434 18.6613 50.4288 18.32H48.5088C48.4234 17.9573 48.3808 17.5307 48.3808 17.04C48.3808 16.528 48.4234 16.1013 48.5088 15.76H52.9888ZM65.8013 23.44C65.8866 23.7813 65.9293 24.208 65.9293 24.72C65.9293 25.2107 65.8866 25.6373 65.8013 26H63.2413C63.1559 25.6373 63.1133 25.2107 63.1133 24.72C63.1133 24.208 63.1559 23.7813 63.2413 23.44H62.2812C62.1959 23.0773 62.1533 22.6507 62.1533 22.16C62.1533 21.648 62.1959 21.2213 62.2812 20.88H61.3213C61.2359 20.5173 61.1933 20.0907 61.1933 19.6C61.1933 19.088 61.2359 18.6613 61.3213 18.32H58.1213C58.2066 18.6613 58.2493 19.088 58.2493 19.6C58.2493 20.0907 58.2066 20.5173 58.1213 20.88C58.2066 21.2213 58.2493 21.648 58.2493 22.16C58.2493 22.6507 58.2066 23.0773 58.1213 23.44C58.2066 23.7813 58.2493 24.208 58.2493 24.72C58.2493 25.2107 58.2066 25.6373 58.1213 26H55.5613C55.4759 25.6373 55.4333 25.2107 55.4333 24.72C55.4333 24.208 55.4759 23.7813 55.5613 23.44C55.4759 23.0773 55.4333 22.6507 55.4333 22.16C55.4333 21.648 55.4759 21.2213 55.5613 20.88C55.4759 20.5173 55.4333 20.0907 55.4333 19.6C55.4333 19.088 55.4759 18.6613 55.5613 18.32C55.4759 17.9573 55.4333 17.5307 55.4333 17.04C55.4333 16.528 55.4759 16.1013 55.5613 15.76C55.4759 15.3973 55.4333 14.9707 55.4333 14.48C55.4333 13.968 55.4759 13.5413 55.5613 13.2C55.4759 12.8373 55.4333 12.4107 55.4333 11.92C55.4333 11.408 55.4759 10.9813 55.5613 10.64C55.4759 10.2773 55.4333 9.85067 55.4333 9.36C55.4333 8.848 55.4759 8.42133 55.5613 8.08H64.5213C64.6066 8.42133 64.6493 8.848 64.6493 9.36C64.6493 9.85067 64.6066 10.2773 64.5213 10.64H65.8013C65.8866 10.9813 65.9293 11.408 65.9293 11.92C65.9293 12.4107 65.8866 12.8373 65.8013 13.2H65.1613C65.2466 13.5413 65.2893 13.968 65.2893 14.48C65.2893 14.9707 65.2466 15.3973 65.1613 15.76H63.2413C63.3266 16.1013 63.3693 16.528 63.3693 17.04C63.3693 17.5307 63.3266 17.9573 63.2413 18.32H63.8813C63.9666 18.6613 64.0093 19.088 64.0093 19.6C64.0093 20.0907 63.9666 20.5173 63.8813 20.88H64.8413C64.9266 21.2213 64.9693 21.648 64.9693 22.16C64.9693 22.6507 64.9266 23.0773 64.8413 23.44H65.8013ZM62.6013 15.76C62.5159 15.3973 62.4733 14.9707 62.4733 14.48C62.4733 13.968 62.5159 13.5413 62.6013 13.2C62.5159 12.8373 62.4733 12.4107 62.4733 11.92C62.4733 11.408 62.5159 10.9813 62.6013 10.64H58.1213C58.2066 10.9813 58.2493 11.408 58.2493 11.92C58.2493 12.4107 58.2066 12.8373 58.1213 13.2C58.2066 13.5413 58.2493 13.968 58.2493 14.48C58.2493 14.9707 58.2066 15.3973 58.1213 15.76H62.6013ZM72.2138 18.32C72.2991 18.6613 72.3418 19.088 72.3418 19.6C72.3418 20.0907 72.2991 20.5173 72.2138 20.88C72.2991 21.2213 72.3418 21.648 72.3418 22.16C72.3418 22.6507 72.2991 23.0773 72.2138 23.44H77.3338C77.4191 23.7813 77.4618 24.208 77.4618 24.72C77.4618 25.2107 77.4191 25.6373 77.3338 26H69.6538C69.5684 25.6373 69.5258 25.2107 69.5258 24.72C69.5258 24.208 69.5684 23.7813 69.6538 23.44C69.5684 23.0773 69.5258 22.6507 69.5258 22.16C69.5258 21.648 69.5684 21.2213 69.6538 20.88C69.5684 20.5173 69.5258 20.0907 69.5258 19.6C69.5258 19.088 69.5684 18.6613 69.6538 18.32C69.5684 17.9573 69.5258 17.5307 69.5258 17.04C69.5258 16.528 69.5684 16.1013 69.6538 15.76C69.5684 15.3973 69.5258 14.9707 69.5258 14.48C69.5258 13.968 69.5684 13.5413 69.6538 13.2C69.5684 12.8373 69.5258 12.4107 69.5258 11.92C69.5258 11.408 69.5684 10.9813 69.6538 10.64C69.5684 10.2773 69.5258 9.85067 69.5258 9.36C69.5258 8.848 69.5684 8.42133 69.6538 8.08H77.3338C77.4191 8.42133 77.4618 8.848 77.4618 9.36C77.4618 9.85067 77.4191 10.2773 77.3338 10.64H72.2138C72.2991 10.9813 72.3418 11.408 72.3418 11.92C72.3418 12.4107 72.2991 12.8373 72.2138 13.2C72.2991 13.5413 72.3418 13.968 72.3418 14.48C72.3418 14.9707 72.2991 15.3973 72.2138 15.76H77.3338C77.4191 16.1013 77.4618 16.528 77.4618 17.04C77.4618 17.5307 77.4191 17.9573 77.3338 18.32H72.2138ZM85.0263 18.32C85.1116 18.6613 85.1543 19.088 85.1543 19.6C85.1543 20.0907 85.1116 20.5173 85.0263 20.88C85.1116 21.2213 85.1543 21.648 85.1543 22.16C85.1543 22.6507 85.1116 23.0773 85.0263 23.44H90.1463C90.2316 23.7813 90.2743 24.208 90.2743 24.72C90.2743 25.2107 90.2316 25.6373 90.1463 26H82.4663C82.3809 25.6373 82.3383 25.2107 82.3383 24.72C82.3383 24.208 82.3809 23.7813 82.4663 23.44C82.3809 23.0773 82.3383 22.6507 82.3383 22.16C82.3383 21.648 82.3809 21.2213 82.4663 20.88C82.3809 20.5173 82.3383 20.0907 82.3383 19.6C82.3383 19.088 82.3809 18.6613 82.4663 18.32C82.3809 17.9573 82.3383 17.5307 82.3383 17.04C82.3383 16.528 82.3809 16.1013 82.4663 15.76C82.3809 15.3973 82.3383 14.9707 82.3383 14.48C82.3383 13.968 82.3809 13.5413 82.4663 13.2C82.3809 12.8373 82.3383 12.4107 82.3383 11.92C82.3383 11.408 82.3809 10.9813 82.4663 10.64C82.3809 10.2773 82.3383 9.85067 82.3383 9.36C82.3383 8.848 82.3809 8.42133 82.4663 8.08H90.1463C90.2316 8.42133 90.2743 8.848 90.2743 9.36C90.2743 9.85067 90.2316 10.2773 90.1463 10.64H85.0263C85.1116 10.9813 85.1543 11.408 85.1543 11.92C85.1543 12.4107 85.1116 12.8373 85.0263 13.2C85.1116 13.5413 85.1543 13.968 85.1543 14.48C85.1543 14.9707 85.1116 15.3973 85.0263 15.76H90.1463C90.2316 16.1013 90.2743 16.528 90.2743 17.04C90.2743 17.5307 90.2316 17.9573 90.1463 18.32H85.0263ZM104.239 10.64C104.324 10.9813 104.367 11.408 104.367 11.92C104.367 12.4107 104.324 12.8373 104.239 13.2C104.324 13.5413 104.367 13.968 104.367 14.48C104.367 14.9707 104.324 15.3973 104.239 15.76C104.324 16.1013 104.367 16.528 104.367 17.04C104.367 17.5307 104.324 17.9573 104.239 18.32C104.324 18.6613 104.367 19.088 104.367 19.6C104.367 20.0907 104.324 20.5173 104.239 20.88C104.324 21.2213 104.367 21.648 104.367 22.16C104.367 22.6507 104.324 23.0773 104.239 23.44C104.324 23.7813 104.367 24.208 104.367 24.72C104.367 25.2107 104.324 25.6373 104.239 26H101.679C101.593 25.6373 101.551 25.2107 101.551 24.72C101.551 24.208 101.593 23.7813 101.679 23.44H100.079C99.9934 23.0773 99.9508 22.6507 99.9508 22.16C99.9508 21.648 99.9934 21.2213 100.079 20.88H99.1188C99.0334 20.5173 98.9908 20.0907 98.9908 19.6C98.9908 19.088 99.0334 18.6613 99.1188 18.32H97.8388C97.7534 17.9573 97.7108 17.5307 97.7108 17.04C97.7108 16.528 97.7534 16.1013 97.8388 15.76H96.5588C96.6441 16.1013 96.6868 16.528 96.6868 17.04C96.6868 17.5307 96.6441 17.9573 96.5588 18.32C96.6441 18.6613 96.6868 19.088 96.6868 19.6C96.6868 20.0907 96.6441 20.5173 96.5588 20.88C96.6441 21.2213 96.6868 21.648 96.6868 22.16C96.6868 22.6507 96.6441 23.0773 96.5588 23.44C96.6441 23.7813 96.6868 24.208 96.6868 24.72C96.6868 25.2107 96.6441 25.6373 96.5588 26H93.9988C93.9134 25.6373 93.8708 25.2107 93.8708 24.72C93.8708 24.208 93.9134 23.7813 93.9988 23.44C93.9134 23.0773 93.8708 22.6507 93.8708 22.16C93.8708 21.648 93.9134 21.2213 93.9988 20.88C93.9134 20.5173 93.8708 20.0907 93.8708 19.6C93.8708 19.088 93.9134 18.6613 93.9988 18.32C93.9134 17.9573 93.8708 17.5307 93.8708 17.04C93.8708 16.528 93.9134 16.1013 93.9988 15.76C93.9134 15.3973 93.8708 14.9707 93.8708 14.48C93.8708 13.968 93.9134 13.5413 93.9988 13.2C93.9134 12.8373 93.8708 12.4107 93.8708 11.92C93.8708 11.408 93.9134 10.9813 93.9988 10.64C93.9134 10.2773 93.8708 9.85067 93.8708 9.36C93.8708 8.848 93.9134 8.42133 93.9988 8.08H97.1988C97.2841 8.42133 97.3268 8.848 97.3268 9.36C97.3268 9.85067 97.2841 10.2773 97.1988 10.64H98.1588C98.2441 10.9813 98.2868 11.408 98.2868 11.92C98.2868 12.4107 98.2441 12.8373 98.1588 13.2H99.1188C99.2041 13.5413 99.2468 13.968 99.2468 14.48C99.2468 14.9707 99.2041 15.3973 99.1188 15.76H100.399C100.484 16.1013 100.527 16.528 100.527 17.04C100.527 17.5307 100.484 17.9573 100.399 18.32H101.679C101.593 17.9573 101.551 17.5307 101.551 17.04C101.551 16.528 101.593 16.1013 101.679 15.76C101.593 15.3973 101.551 14.9707 101.551 14.48C101.551 13.968 101.593 13.5413 101.679 13.2C101.593 12.8373 101.551 12.4107 101.551 11.92C101.551 11.408 101.593 10.9813 101.679 10.64C101.593 10.2773 101.551 9.85067 101.551 9.36C101.551 8.848 101.593 8.42133 101.679 8.08H104.239C104.324 8.42133 104.367 8.848 104.367 9.36C104.367 9.85067 104.324 10.2773 104.239 10.64Z" fill="#7ECA9C"/>
<path d="M52.9888 15.76L53.4738 15.6387L53.3791 15.26H52.9888V15.76ZM52.9888 18.32L52.502 18.2055L52.4743 18.3236L52.5037 18.4413L52.9888 18.32ZM52.9888 20.88L52.502 20.7655L52.4743 20.8836L52.5037 21.0013L52.9888 20.88ZM52.9888 23.44V23.94H53.3848L53.4755 23.5545L52.9888 23.44ZM51.7088 23.44V22.94H51.0684L51.2237 23.5613L51.7088 23.44ZM51.7088 26V26.5H52.1048L52.1955 26.1145L51.7088 26ZM45.3088 26L44.822 26.1145L44.9127 26.5H45.3088V26ZM45.3088 23.44L45.7938 23.5613L45.9491 22.94H45.3088V23.44ZM44.0288 23.44L43.542 23.5545L43.6327 23.94H44.0288V23.44ZM44.0288 20.88L44.5138 21.0013L44.6691 20.38H44.0288V20.88ZM42.7488 20.88L42.262 20.9945L42.3527 21.38H42.7488V20.88ZM42.7488 18.32L43.2338 18.4413L43.2632 18.3236L43.2355 18.2055L42.7488 18.32ZM42.7488 15.76L43.2338 15.8813L43.2632 15.7636L43.2355 15.6455L42.7488 15.76ZM42.7488 13.2V12.7H42.3584L42.2637 13.0787L42.7488 13.2ZM44.0288 13.2V13.7H44.6601L44.5155 13.0855L44.0288 13.2ZM44.0288 10.64V10.14H43.6384L43.5437 10.5187L44.0288 10.64ZM45.3088 10.64V11.14H45.9401L45.7955 10.5255L45.3088 10.64ZM45.3088 8.08V7.58H44.9184L44.8237 7.95873L45.3088 8.08ZM51.7088 8.08L52.1938 7.95873L52.0991 7.58H51.7088V8.08ZM51.7088 10.64L51.222 10.5255L51.0774 11.14H51.7088V10.64ZM52.9888 10.64L53.4738 10.5187L53.3791 10.14H52.9888V10.64ZM52.9888 13.2V13.7H53.3848L53.4755 13.3145L52.9888 13.2ZM50.4288 13.2L49.942 13.3145L50.0327 13.7H50.4288V13.2ZM50.4288 10.64L50.9138 10.7613L51.0691 10.14H50.4288V10.64ZM46.5888 10.64V10.14H45.9484L46.1037 10.7613L46.5888 10.64ZM46.5888 13.2V13.7H46.9848L47.0755 13.3145L46.5888 13.2ZM45.3088 13.2V12.7H44.6684L44.8237 13.3213L45.3088 13.2ZM45.3088 15.76L44.822 15.6455L44.7943 15.7636L44.8237 15.8813L45.3088 15.76ZM45.3088 18.32L44.822 18.2055L44.7943 18.3236L44.8237 18.4413L45.3088 18.32ZM45.3088 20.88L44.822 20.7655L44.6774 21.38H45.3088V20.88ZM46.5888 20.88L47.0738 20.7587L46.9791 20.38H46.5888V20.88ZM46.5888 23.44L46.102 23.3255L45.9574 23.94H46.5888V23.44ZM50.4288 23.44V23.94H51.0601L50.9155 23.3255L50.4288 23.44ZM50.4288 20.88L50.9138 21.0013L50.9432 20.8836L50.9155 20.7655L50.4288 20.88ZM50.4288 18.32L50.9138 18.4413L51.0691 17.82H50.4288V18.32ZM48.5088 18.32L48.022 18.4345L48.1127 18.82H48.5088V18.32ZM48.5088 15.76V15.26H48.1184L48.0237 15.6387L48.5088 15.76ZM52.5037 15.8813C52.5757 16.1694 52.6168 16.5521 52.6168 17.04H53.6168C53.6168 16.5039 53.5724 16.0332 53.4738 15.6387L52.5037 15.8813ZM52.6168 17.04C52.6168 17.5035 52.5763 17.89 52.502 18.2055L53.4755 18.4345C53.5719 18.0247 53.6168 17.5578 53.6168 17.04H52.6168ZM52.5037 18.4413C52.5757 18.7295 52.6168 19.1121 52.6168 19.6H53.6168C53.6168 19.0639 53.5724 18.5932 53.4738 18.1987L52.5037 18.4413ZM52.6168 19.6C52.6168 20.0635 52.5763 20.45 52.502 20.7655L53.4755 20.9945C53.5719 20.5847 53.6168 20.1178 53.6168 19.6H52.6168ZM52.5037 21.0013C52.5757 21.2894 52.6168 21.6721 52.6168 22.16H53.6168C53.6168 21.6239 53.5724 21.1532 53.4738 20.7587L52.5037 21.0013ZM52.6168 22.16C52.6168 22.6235 52.5763 23.01 52.502 23.3255L53.4755 23.5545C53.5719 23.1447 53.6168 22.6778 53.6168 22.16H52.6168ZM52.9888 22.94H51.7088V23.94H52.9888V22.94ZM51.2237 23.5613C51.2957 23.8494 51.3368 24.2321 51.3368 24.72H52.3368C52.3368 24.1839 52.2924 23.7132 52.1938 23.3187L51.2237 23.5613ZM51.3368 24.72C51.3368 25.1835 51.2963 25.57 51.222 25.8855L52.1955 26.1145C52.2919 25.7047 52.3368 25.2378 52.3368 24.72H51.3368ZM51.7088 25.5H45.3088V26.5H51.7088V25.5ZM45.7955 25.8855C45.7212 25.57 45.6807 25.1835 45.6807 24.72H44.6808C44.6808 25.2378 44.7256 25.7047 44.822 26.1145L45.7955 25.8855ZM45.6807 24.72C45.6807 24.2321 45.7218 23.8494 45.7938 23.5613L44.8237 23.3187C44.7251 23.7132 44.6808 24.1839 44.6808 24.72H45.6807ZM45.3088 22.94H44.0288V23.94H45.3088V22.94ZM44.5155 23.3255C44.4412 23.01 44.4008 22.6235 44.4008 22.16H43.4008C43.4008 22.6778 43.4456 23.1447 43.542 23.5545L44.5155 23.3255ZM44.4008 22.16C44.4008 21.6721 44.4418 21.2894 44.5138 21.0013L43.5437 20.7587C43.4451 21.1532 43.4008 21.6239 43.4008 22.16H44.4008ZM44.0288 20.38H42.7488V21.38H44.0288V20.38ZM43.2355 20.7655C43.1612 20.45 43.1207 20.0635 43.1207 19.6H42.1208C42.1208 20.1178 42.1656 20.5847 42.262 20.9945L43.2355 20.7655ZM43.1207 19.6C43.1207 19.1121 43.1618 18.7294 43.2338 18.4413L42.2637 18.1987C42.1651 18.5932 42.1208 19.0639 42.1208 19.6H43.1207ZM43.2355 18.2055C43.1612 17.89 43.1207 17.5035 43.1207 17.04H42.1208C42.1208 17.5578 42.1656 18.0247 42.262 18.4345L43.2355 18.2055ZM43.1207 17.04C43.1207 16.5521 43.1618 16.1694 43.2338 15.8813L42.2637 15.6387C42.1651 16.0332 42.1208 16.5039 42.1208 17.04H43.1207ZM43.2355 15.6455C43.1612 15.33 43.1207 14.9435 43.1207 14.48H42.1208C42.1208 14.9978 42.1656 15.4647 42.262 15.8745L43.2355 15.6455ZM43.1207 14.48C43.1207 13.9921 43.1618 13.6094 43.2338 13.3213L42.2637 13.0787C42.1651 13.4732 42.1208 13.9439 42.1208 14.48H43.1207ZM42.7488 13.7H44.0288V12.7H42.7488V13.7ZM44.5155 13.0855C44.4412 12.77 44.4008 12.3835 44.4008 11.92H43.4008C43.4008 12.4378 43.4456 12.9047 43.542 13.3145L44.5155 13.0855ZM44.4008 11.92C44.4008 11.4321 44.4418 11.0494 44.5138 10.7613L43.5437 10.5187C43.4451 10.9132 43.4008 11.3839 43.4008 11.92H44.4008ZM44.0288 11.14H45.3088V10.14H44.0288V11.14ZM45.7955 10.5255C45.7212 10.21 45.6807 9.82349 45.6807 9.36H44.6808C44.6808 9.87784 44.7256 10.3447 44.822 10.7545L45.7955 10.5255ZM45.6807 9.36C45.6807 8.87213 45.7218 8.48945 45.7938 8.20127L44.8237 7.95873C44.7251 8.35322 44.6808 8.82387 44.6808 9.36H45.6807ZM45.3088 8.58H51.7088V7.58H45.3088V8.58ZM51.2237 8.20127C51.2957 8.48945 51.3368 8.87213 51.3368 9.36H52.3368C52.3368 8.82387 52.2924 8.35322 52.1938 7.95873L51.2237 8.20127ZM51.3368 9.36C51.3368 9.82349 51.2963 10.21 51.222 10.5255L52.1955 10.7545C52.2919 10.3447 52.3368 9.87784 52.3368 9.36H51.3368ZM51.7088 11.14H52.9888V10.14H51.7088V11.14ZM52.5037 10.7613C52.5757 11.0494 52.6168 11.4321 52.6168 11.92H53.6168C53.6168 11.3839 53.5724 10.9132 53.4738 10.5187L52.5037 10.7613ZM52.6168 11.92C52.6168 12.3835 52.5763 12.77 52.502 13.0855L53.4755 13.3145C53.5719 12.9047 53.6168 12.4378 53.6168 11.92H52.6168ZM52.9888 12.7H50.4288V13.7H52.9888V12.7ZM50.9155 13.0855C50.8412 12.77 50.8008 12.3835 50.8008 11.92H49.8008C49.8008 12.4378 49.8456 12.9047 49.942 13.3145L50.9155 13.0855ZM50.8008 11.92C50.8008 11.4321 50.8418 11.0494 50.9138 10.7613L49.9437 10.5187C49.8451 10.9132 49.8008 11.3839 49.8008 11.92H50.8008ZM50.4288 10.14H46.5888V11.14H50.4288V10.14ZM46.1037 10.7613C46.1757 11.0494 46.2168 11.4321 46.2168 11.92H47.2168C47.2168 11.3839 47.1724 10.9132 47.0738 10.5187L46.1037 10.7613ZM46.2168 11.92C46.2168 12.3835 46.1763 12.77 46.102 13.0855L47.0755 13.3145C47.1719 12.9047 47.2168 12.4378 47.2168 11.92H46.2168ZM46.5888 12.7H45.3088V13.7H46.5888V12.7ZM44.8237 13.3213C44.8957 13.6094 44.9368 13.9921 44.9368 14.48H45.9368C45.9368 13.9439 45.8924 13.4732 45.7938 13.0787L44.8237 13.3213ZM44.9368 14.48C44.9368 14.9435 44.8963 15.33 44.822 15.6455L45.7955 15.8745C45.8919 15.4647 45.9368 14.9978 45.9368 14.48H44.9368ZM44.8237 15.8813C44.8957 16.1694 44.9368 16.5521 44.9368 17.04H45.9368C45.9368 16.5039 45.8924 16.0332 45.7938 15.6387L44.8237 15.8813ZM44.9368 17.04C44.9368 17.5035 44.8963 17.89 44.822 18.2055L45.7955 18.4345C45.8919 18.0247 45.9368 17.5578 45.9368 17.04H44.9368ZM44.8237 18.4413C44.8957 18.7294 44.9368 19.1121 44.9368 19.6H45.9368C45.9368 19.0639 45.8924 18.5932 45.7938 18.1987L44.8237 18.4413ZM44.9368 19.6C44.9368 20.0635 44.8963 20.45 44.822 20.7655L45.7955 20.9945C45.8919 20.5847 45.9368 20.1178 45.9368 19.6H44.9368ZM45.3088 21.38H46.5888V20.38H45.3088V21.38ZM46.1037 21.0013C46.1757 21.2894 46.2168 21.6721 46.2168 22.16H47.2168C47.2168 21.6239 47.1724 21.1532 47.0738 20.7587L46.1037 21.0013ZM46.2168 22.16C46.2168 22.6235 46.1763 23.01 46.102 23.3255L47.0755 23.5545C47.1719 23.1447 47.2168 22.6778 47.2168 22.16H46.2168ZM46.5888 23.94H50.4288V22.94H46.5888V23.94ZM50.9155 23.3255C50.8412 23.01 50.8008 22.6235 50.8008 22.16H49.8008C49.8008 22.6778 49.8456 23.1447 49.942 23.5545L50.9155 23.3255ZM50.8008 22.16C50.8008 21.6721 50.8418 21.2894 50.9138 21.0013L49.9437 20.7587C49.8451 21.1532 49.8008 21.6239 49.8008 22.16H50.8008ZM50.9155 20.7655C50.8412 20.45 50.8008 20.0635 50.8008 19.6H49.8008C49.8008 20.1178 49.8456 20.5847 49.942 20.9945L50.9155 20.7655ZM50.8008 19.6C50.8008 19.1121 50.8418 18.7294 50.9138 18.4413L49.9437 18.1987C49.8451 18.5932 49.8008 19.0639 49.8008 19.6H50.8008ZM50.4288 17.82H48.5088V18.82H50.4288V17.82ZM48.9955 18.2055C48.9212 17.89 48.8808 17.5035 48.8808 17.04H47.8808C47.8808 17.5578 47.9256 18.0247 48.022 18.4345L48.9955 18.2055ZM48.8808 17.04C48.8808 16.5521 48.9218 16.1694 48.9938 15.8813L48.0237 15.6387C47.9251 16.0332 47.8808 16.5039 47.8808 17.04H48.8808ZM48.5088 16.26H52.9888V15.26H48.5088V16.26ZM65.8013 23.44L66.2863 23.3187L66.1916 22.94H65.8013V23.44ZM65.8013 26V26.5H66.1973L66.288 26.1145L65.8013 26ZM63.2412 26L62.7545 26.1145L62.8452 26.5H63.2412V26ZM63.2412 23.44L63.7263 23.5613L63.8816 22.94H63.2412V23.44ZM62.2812 23.44L61.7945 23.5545L61.8852 23.94H62.2812V23.44ZM62.2812 20.88L62.7663 21.0013L62.9216 20.38H62.2812V20.88ZM61.3213 20.88L60.8345 20.9945L60.9252 21.38H61.3213V20.88ZM61.3213 18.32L61.8063 18.4413L61.9616 17.82H61.3213V18.32ZM58.1213 18.32V17.82H57.4809L57.6362 18.4413L58.1213 18.32ZM58.1213 20.88L57.6345 20.7655L57.6068 20.8836L57.6362 21.0013L58.1213 20.88ZM58.1213 23.44L57.6345 23.3255L57.6068 23.4436L57.6362 23.5613L58.1213 23.44ZM58.1213 26V26.5H58.5173L58.608 26.1145L58.1213 26ZM55.5612 26L55.0745 26.1145L55.1652 26.5H55.5612V26ZM55.5612 23.44L56.0463 23.5613L56.0757 23.4436L56.048 23.3255L55.5612 23.44ZM55.5612 20.88L56.0463 21.0013L56.0757 20.8836L56.048 20.7655L55.5612 20.88ZM55.5612 18.32L56.0463 18.4413L56.0757 18.3236L56.048 18.2055L55.5612 18.32ZM55.5612 15.76L56.0463 15.8813L56.0757 15.7636L56.048 15.6455L55.5612 15.76ZM55.5612 13.2L56.0463 13.3213L56.0757 13.2036L56.048 13.0855L55.5612 13.2ZM55.5612 10.64L56.0463 10.7613L56.0757 10.6436L56.048 10.5255L55.5612 10.64ZM55.5612 8.08V7.58H55.1709L55.0762 7.95873L55.5612 8.08ZM64.5213 8.08L65.0063 7.95873L64.9116 7.58H64.5213V8.08ZM64.5213 10.64L64.0345 10.5255L63.8899 11.14H64.5213V10.64ZM65.8013 10.64L66.2863 10.5187L66.1916 10.14H65.8013V10.64ZM65.8013 13.2V13.7H66.1973L66.288 13.3145L65.8013 13.2ZM65.1613 13.2V12.7H64.5209L64.6762 13.3213L65.1613 13.2ZM65.1613 15.76V16.26H65.5573L65.648 15.8745L65.1613 15.76ZM63.2412 15.76V15.26H62.6009L62.7562 15.8813L63.2412 15.76ZM63.2412 18.32L62.7545 18.2055L62.6099 18.82H63.2412V18.32ZM63.8813 18.32L64.3663 18.1987L64.2716 17.82H63.8813V18.32ZM63.8813 20.88L63.3945 20.7655L63.2499 21.38H63.8813V20.88ZM64.8413 20.88L65.3263 20.7587L65.2316 20.38H64.8413V20.88ZM64.8413 23.44L64.3545 23.3255L64.2099 23.94H64.8413V23.44ZM62.6012 15.76V16.26H63.2326L63.088 15.6455L62.6012 15.76ZM62.6012 13.2L63.0863 13.3213L63.1157 13.2036L63.088 13.0855L62.6012 13.2ZM62.6012 10.64L63.0863 10.7613L63.2416 10.14H62.6012V10.64ZM58.1213 10.64V10.14H57.4809L57.6362 10.7613L58.1213 10.64ZM58.1213 13.2L57.6345 13.0855L57.6068 13.2036L57.6362 13.3213L58.1213 13.2ZM58.1213 15.76L57.6345 15.6455L57.4899 16.26H58.1213V15.76ZM65.3162 23.5613C65.3882 23.8494 65.4293 24.2321 65.4293 24.72H66.4293C66.4293 24.1839 66.3849 23.7132 66.2863 23.3187L65.3162 23.5613ZM65.4293 24.72C65.4293 25.1835 65.3888 25.57 65.3145 25.8855L66.288 26.1145C66.3844 25.7047 66.4293 25.2378 66.4293 24.72H65.4293ZM65.8013 25.5H63.2412V26.5H65.8013V25.5ZM63.728 25.8855C63.6537 25.57 63.6133 25.1835 63.6133 24.72H62.6133C62.6133 25.2378 62.6581 25.7047 62.7545 26.1145L63.728 25.8855ZM63.6133 24.72C63.6133 24.2321 63.6543 23.8494 63.7263 23.5613L62.7562 23.3187C62.6576 23.7132 62.6133 24.1839 62.6133 24.72H63.6133ZM63.2412 22.94H62.2812V23.94H63.2412V22.94ZM62.768 23.3255C62.6937 23.01 62.6532 22.6235 62.6532 22.16H61.6532C61.6532 22.6778 61.6981 23.1447 61.7945 23.5545L62.768 23.3255ZM62.6532 22.16C62.6532 21.6721 62.6943 21.2894 62.7663 21.0013L61.7962 20.7587C61.6976 21.1532 61.6532 21.6239 61.6532 22.16H62.6532ZM62.2812 20.38H61.3213V21.38H62.2812V20.38ZM61.808 20.7655C61.7337 20.45 61.6933 20.0635 61.6933 19.6H60.6933C60.6933 20.1178 60.7381 20.5847 60.8345 20.9945L61.808 20.7655ZM61.6933 19.6C61.6933 19.1121 61.7343 18.7295 61.8063 18.4413L60.8362 18.1987C60.7376 18.5932 60.6933 19.0639 60.6933 19.6H61.6933ZM61.3213 17.82H58.1213V18.82H61.3213V17.82ZM57.6362 18.4413C57.7082 18.7294 57.7493 19.1121 57.7493 19.6H58.7493C58.7493 19.0639 58.7049 18.5932 58.6063 18.1987L57.6362 18.4413ZM57.7493 19.6C57.7493 20.0635 57.7088 20.45 57.6345 20.7655L58.608 20.9945C58.7044 20.5847 58.7493 20.1178 58.7493 19.6H57.7493ZM57.6362 21.0013C57.7082 21.2894 57.7493 21.6721 57.7493 22.16H58.7493C58.7493 21.6239 58.7049 21.1532 58.6063 20.7587L57.6362 21.0013ZM57.7493 22.16C57.7493 22.6235 57.7088 23.01 57.6345 23.3255L58.608 23.5545C58.7044 23.1447 58.7493 22.6778 58.7493 22.16H57.7493ZM57.6362 23.5613C57.7082 23.8494 57.7493 24.2321 57.7493 24.72H58.7493C58.7493 24.1839 58.7049 23.7132 58.6063 23.3187L57.6362 23.5613ZM57.7493 24.72C57.7493 25.1835 57.7088 25.57 57.6345 25.8855L58.608 26.1145C58.7044 25.7047 58.7493 25.2378 58.7493 24.72H57.7493ZM58.1213 25.5H55.5612V26.5H58.1213V25.5ZM56.048 25.8855C55.9737 25.57 55.9333 25.1835 55.9333 24.72H54.9333C54.9333 25.2378 54.9781 25.7047 55.0745 26.1145L56.048 25.8855ZM55.9333 24.72C55.9333 24.2321 55.9743 23.8494 56.0463 23.5613L55.0762 23.3187C54.9776 23.7132 54.9333 24.1839 54.9333 24.72H55.9333ZM56.048 23.3255C55.9737 23.01 55.9333 22.6235 55.9333 22.16H54.9333C54.9333 22.6778 54.9781 23.1447 55.0745 23.5545L56.048 23.3255ZM55.9333 22.16C55.9333 21.6721 55.9743 21.2894 56.0463 21.0013L55.0762 20.7587C54.9776 21.1532 54.9333 21.6239 54.9333 22.16H55.9333ZM56.048 20.7655C55.9737 20.45 55.9333 20.0635 55.9333 19.6H54.9333C54.9333 20.1178 54.9781 20.5847 55.0745 20.9945L56.048 20.7655ZM55.9333 19.6C55.9333 19.1121 55.9743 18.7294 56.0463 18.4413L55.0762 18.1987C54.9776 18.5932 54.9333 19.0639 54.9333 19.6H55.9333ZM56.048 18.2055C55.9737 17.89 55.9333 17.5035 55.9333 17.04H54.9333C54.9333 17.5578 54.9781 18.0247 55.0745 18.4345L56.048 18.2055ZM55.9333 17.04C55.9333 16.5521 55.9743 16.1694 56.0463 15.8813L55.0762 15.6387C54.9776 16.0332 54.9333 16.5039 54.9333 17.04H55.9333ZM56.048 15.6455C55.9737 15.33 55.9333 14.9435 55.9333 14.48H54.9333C54.9333 14.9978 54.9781 15.4647 55.0745 15.8745L56.048 15.6455ZM55.9333 14.48C55.9333 13.9921 55.9743 13.6094 56.0463 13.3213L55.0762 13.0787C54.9776 13.4732 54.9333 13.9439 54.9333 14.48H55.9333ZM56.048 13.0855C55.9737 12.77 55.9333 12.3835 55.9333 11.92H54.9333C54.9333 12.4378 54.9781 12.9047 55.0745 13.3145L56.048 13.0855ZM55.9333 11.92C55.9333 11.4321 55.9743 11.0494 56.0463 10.7613L55.0762 10.5187C54.9776 10.9132 54.9333 11.3839 54.9333 11.92H55.9333ZM56.048 10.5255C55.9737 10.21 55.9333 9.82349 55.9333 9.36H54.9333C54.9333 9.87784 54.9781 10.3447 55.0745 10.7545L56.048 10.5255ZM55.9333 9.36C55.9333 8.87213 55.9743 8.48945 56.0463 8.20127L55.0762 7.95873C54.9776 8.35322 54.9333 8.82387 54.9333 9.36H55.9333ZM55.5612 8.58H64.5213V7.58H55.5612V8.58ZM64.0362 8.20127C64.1082 8.48945 64.1493 8.87213 64.1493 9.36H65.1493C65.1493 8.82387 65.1049 8.35322 65.0063 7.95873L64.0362 8.20127ZM64.1493 9.36C64.1493 9.82349 64.1088 10.21 64.0345 10.5255L65.008 10.7545C65.1044 10.3447 65.1493 9.87784 65.1493 9.36H64.1493ZM64.5213 11.14H65.8013V10.14H64.5213V11.14ZM65.3162 10.7613C65.3882 11.0494 65.4293 11.4321 65.4293 11.92H66.4293C66.4293 11.3839 66.3849 10.9132 66.2863 10.5187L65.3162 10.7613ZM65.4293 11.92C65.4293 12.3835 65.3888 12.77 65.3145 13.0855L66.288 13.3145C66.3844 12.9047 66.4293 12.4378 66.4293 11.92H65.4293ZM65.8013 12.7H65.1613V13.7H65.8013V12.7ZM64.6762 13.3213C64.7482 13.6094 64.7892 13.9921 64.7892 14.48H65.7892C65.7892 13.9439 65.7449 13.4732 65.6463 13.0787L64.6762 13.3213ZM64.7892 14.48C64.7892 14.9435 64.7488 15.33 64.6745 15.6455L65.648 15.8745C65.7444 15.4647 65.7892 14.9978 65.7892 14.48H64.7892ZM65.1613 15.26H63.2412V16.26H65.1613V15.26ZM62.7562 15.8813C62.8282 16.1694 62.8693 16.5521 62.8693 17.04H63.8693C63.8693 16.5039 63.8249 16.0332 63.7263 15.6387L62.7562 15.8813ZM62.8693 17.04C62.8693 17.5035 62.8288 17.89 62.7545 18.2055L63.728 18.4345C63.8244 18.0247 63.8693 17.5578 63.8693 17.04H62.8693ZM63.2412 18.82H63.8813V17.82H63.2412V18.82ZM63.3962 18.4413C63.4682 18.7295 63.5093 19.1121 63.5093 19.6H64.5093C64.5093 19.0639 64.4649 18.5932 64.3663 18.1987L63.3962 18.4413ZM63.5093 19.6C63.5093 20.0635 63.4688 20.45 63.3945 20.7655L64.368 20.9945C64.4644 20.5847 64.5093 20.1178 64.5093 19.6H63.5093ZM63.8813 21.38H64.8413V20.38H63.8813V21.38ZM64.3562 21.0013C64.4282 21.2894 64.4692 21.6721 64.4692 22.16H65.4692C65.4692 21.6239 65.4249 21.1532 65.3263 20.7587L64.3562 21.0013ZM64.4692 22.16C64.4692 22.6235 64.4288 23.01 64.3545 23.3255L65.328 23.5545C65.4244 23.1447 65.4692 22.6778 65.4692 22.16H64.4692ZM64.8413 23.94H65.8013V22.94H64.8413V23.94ZM63.088 15.6455C63.0137 15.33 62.9733 14.9435 62.9733 14.48H61.9733C61.9733 14.9978 62.0181 15.4647 62.1145 15.8745L63.088 15.6455ZM62.9733 14.48C62.9733 13.9921 63.0143 13.6094 63.0863 13.3213L62.1162 13.0787C62.0176 13.4732 61.9733 13.9439 61.9733 14.48H62.9733ZM63.088 13.0855C63.0137 12.77 62.9733 12.3835 62.9733 11.92H61.9733C61.9733 12.4378 62.0181 12.9047 62.1145 13.3145L63.088 13.0855ZM62.9733 11.92C62.9733 11.4321 63.0143 11.0494 63.0863 10.7613L62.1162 10.5187C62.0176 10.9132 61.9733 11.3839 61.9733 11.92H62.9733ZM62.6012 10.14H58.1213V11.14H62.6012V10.14ZM57.6362 10.7613C57.7082 11.0494 57.7493 11.4321 57.7493 11.92H58.7493C58.7493 11.3839 58.7049 10.9132 58.6063 10.5187L57.6362 10.7613ZM57.7493 11.92C57.7493 12.3835 57.7088 12.77 57.6345 13.0855L58.608 13.3145C58.7044 12.9047 58.7493 12.4378 58.7493 11.92H57.7493ZM57.6362 13.3213C57.7082 13.6094 57.7493 13.9921 57.7493 14.48H58.7493C58.7493 13.9439 58.7049 13.4732 58.6063 13.0787L57.6362 13.3213ZM57.7493 14.48C57.7493 14.9435 57.7088 15.33 57.6345 15.6455L58.608 15.8745C58.7044 15.4647 58.7493 14.9978 58.7493 14.48H57.7493ZM58.1213 16.26H62.6012V15.26H58.1213V16.26ZM72.2138 18.32V17.82H71.5734L71.7287 18.4413L72.2138 18.32ZM72.2138 20.88L71.727 20.7655L71.6993 20.8836L71.7287 21.0013L72.2138 20.88ZM72.2138 23.44L71.727 23.3255L71.5824 23.94H72.2138V23.44ZM77.3338 23.44L77.8188 23.3187L77.7241 22.94H77.3338V23.44ZM77.3338 26V26.5H77.7298L77.8205 26.1145L77.3338 26ZM69.6537 26L69.167 26.1145L69.2577 26.5H69.6537V26ZM69.6537 23.44L70.1388 23.5613L70.1682 23.4436L70.1405 23.3255L69.6537 23.44ZM69.6537 20.88L70.1388 21.0013L70.1682 20.8836L70.1405 20.7655L69.6537 20.88ZM69.6537 18.32L70.1388 18.4413L70.1682 18.3236L70.1405 18.2055L69.6537 18.32ZM69.6537 15.76L70.1388 15.8813L70.1682 15.7636L70.1405 15.6455L69.6537 15.76ZM69.6537 13.2L70.1388 13.3213L70.1682 13.2036L70.1405 13.0855L69.6537 13.2ZM69.6537 10.64L70.1388 10.7613L70.1682 10.6436L70.1405 10.5255L69.6537 10.64ZM69.6537 8.08V7.58H69.2634L69.1687 7.95873L69.6537 8.08ZM77.3338 8.08L77.8188 7.95873L77.7241 7.58H77.3338V8.08ZM77.3338 10.64V11.14H77.7298L77.8205 10.7545L77.3338 10.64ZM72.2138 10.64V10.14H71.5734L71.7287 10.7613L72.2138 10.64ZM72.2138 13.2L71.727 13.0855L71.6993 13.2036L71.7287 13.3213L72.2138 13.2ZM72.2138 15.76L71.727 15.6455L71.5824 16.26H72.2138V15.76ZM77.3338 15.76L77.8188 15.6387L77.7241 15.26H77.3338V15.76ZM77.3338 18.32V18.82H77.7298L77.8205 18.4345L77.3338 18.32ZM71.7287 18.4413C71.8007 18.7294 71.8418 19.1121 71.8418 19.6H72.8418C72.8418 19.0639 72.7974 18.5932 72.6988 18.1987L71.7287 18.4413ZM71.8418 19.6C71.8418 20.0635 71.8013 20.45 71.727 20.7655L72.7005 20.9945C72.7969 20.5847 72.8418 20.1178 72.8418 19.6H71.8418ZM71.7287 21.0013C71.8007 21.2894 71.8418 21.6721 71.8418 22.16H72.8418C72.8418 21.6239 72.7974 21.1532 72.6988 20.7587L71.7287 21.0013ZM71.8418 22.16C71.8418 22.6235 71.8013 23.01 71.727 23.3255L72.7005 23.5545C72.7969 23.1447 72.8418 22.6778 72.8418 22.16H71.8418ZM72.2138 23.94H77.3338V22.94H72.2138V23.94ZM76.8487 23.5613C76.9207 23.8494 76.9618 24.2321 76.9618 24.72H77.9618C77.9618 24.1839 77.9174 23.7132 77.8188 23.3187L76.8487 23.5613ZM76.9618 24.72C76.9618 25.1835 76.9213 25.57 76.847 25.8855L77.8205 26.1145C77.9169 25.7047 77.9618 25.2378 77.9618 24.72H76.9618ZM77.3338 25.5H69.6537V26.5H77.3338V25.5ZM70.1405 25.8855C70.0662 25.57 70.0257 25.1835 70.0257 24.72H69.0257C69.0257 25.2378 69.0706 25.7047 69.167 26.1145L70.1405 25.8855ZM70.0257 24.72C70.0257 24.2321 70.0668 23.8494 70.1388 23.5613L69.1687 23.3187C69.0701 23.7132 69.0257 24.1839 69.0257 24.72H70.0257ZM70.1405 23.3255C70.0662 23.01 70.0257 22.6235 70.0257 22.16H69.0257C69.0257 22.6778 69.0706 23.1447 69.167 23.5545L70.1405 23.3255ZM70.0257 22.16C70.0257 21.6721 70.0668 21.2894 70.1388 21.0013L69.1687 20.7587C69.0701 21.1532 69.0257 21.6239 69.0257 22.16H70.0257ZM70.1405 20.7655C70.0662 20.45 70.0257 20.0635 70.0257 19.6H69.0257C69.0257 20.1178 69.0706 20.5847 69.167 20.9945L70.1405 20.7655ZM70.0257 19.6C70.0257 19.1121 70.0668 18.7294 70.1388 18.4413L69.1687 18.1987C69.0701 18.5932 69.0257 19.0639 69.0257 19.6H70.0257ZM70.1405 18.2055C70.0662 17.89 70.0257 17.5035 70.0257 17.04H69.0257C69.0257 17.5578 69.0706 18.0247 69.167 18.4345L70.1405 18.2055ZM70.0257 17.04C70.0257 16.5521 70.0668 16.1694 70.1388 15.8813L69.1687 15.6387C69.0701 16.0332 69.0257 16.5039 69.0257 17.04H70.0257ZM70.1405 15.6455C70.0662 15.33 70.0257 14.9435 70.0257 14.48H69.0257C69.0257 14.9978 69.0706 15.4647 69.167 15.8745L70.1405 15.6455ZM70.0257 14.48C70.0257 13.9921 70.0668 13.6094 70.1388 13.3213L69.1687 13.0787C69.0701 13.4732 69.0257 13.9439 69.0257 14.48H70.0257ZM70.1405 13.0855C70.0662 12.77 70.0257 12.3835 70.0257 11.92H69.0257C69.0257 12.4378 69.0706 12.9047 69.167 13.3145L70.1405 13.0855ZM70.0257 11.92C70.0257 11.4321 70.0668 11.0494 70.1388 10.7613L69.1687 10.5187C69.0701 10.9132 69.0257 11.3839 69.0257 11.92H70.0257ZM70.1405 10.5255C70.0662 10.21 70.0257 9.82349 70.0257 9.36H69.0257C69.0257 9.87784 69.0706 10.3447 69.167 10.7545L70.1405 10.5255ZM70.0257 9.36C70.0257 8.87213 70.0668 8.48945 70.1388 8.20127L69.1687 7.95873C69.0701 8.35322 69.0257 8.82387 69.0257 9.36H70.0257ZM69.6537 8.58H77.3338V7.58H69.6537V8.58ZM76.8487 8.20127C76.9207 8.48945 76.9618 8.87213 76.9618 9.36H77.9618C77.9618 8.82387 77.9174 8.35322 77.8188 7.95873L76.8487 8.20127ZM76.9618 9.36C76.9618 9.82349 76.9213 10.21 76.847 10.5255L77.8205 10.7545C77.9169 10.3447 77.9618 9.87784 77.9618 9.36H76.9618ZM77.3338 10.14H72.2138V11.14H77.3338V10.14ZM71.7287 10.7613C71.8007 11.0494 71.8418 11.4321 71.8418 11.92H72.8418C72.8418 11.3839 72.7974 10.9132 72.6988 10.5187L71.7287 10.7613ZM71.8418 11.92C71.8418 12.3835 71.8013 12.77 71.727 13.0855L72.7005 13.3145C72.7969 12.9047 72.8418 12.4378 72.8418 11.92H71.8418ZM71.7287 13.3213C71.8007 13.6094 71.8418 13.9921 71.8418 14.48H72.8418C72.8418 13.9439 72.7974 13.4732 72.6988 13.0787L71.7287 13.3213ZM71.8418 14.48C71.8418 14.9435 71.8013 15.33 71.727 15.6455L72.7005 15.8745C72.7969 15.4647 72.8418 14.9978 72.8418 14.48H71.8418ZM72.2138 16.26H77.3338V15.26H72.2138V16.26ZM76.8487 15.8813C76.9207 16.1694 76.9618 16.5521 76.9618 17.04H77.9618C77.9618 16.5039 77.9174 16.0332 77.8188 15.6387L76.8487 15.8813ZM76.9618 17.04C76.9618 17.5035 76.9213 17.89 76.847 18.2055L77.8205 18.4345C77.9169 18.0247 77.9618 17.5578 77.9618 17.04H76.9618ZM77.3338 17.82H72.2138V18.82H77.3338V17.82ZM85.0262 18.32V17.82H84.3859L84.5412 18.4413L85.0262 18.32ZM85.0262 20.88L84.5395 20.7655L84.5118 20.8836L84.5412 21.0013L85.0262 20.88ZM85.0262 23.44L84.5395 23.3255L84.395 23.94H85.0262V23.44ZM90.1463 23.44L90.6313 23.3187L90.5366 22.94H90.1463V23.44ZM90.1463 26V26.5H90.5423L90.633 26.1145L90.1463 26ZM82.4663 26L81.9795 26.1145L82.0702 26.5H82.4663V26ZM82.4663 23.44L82.9513 23.5613L82.9807 23.4436L82.953 23.3255L82.4663 23.44ZM82.4663 20.88L82.9513 21.0013L82.9807 20.8836L82.953 20.7655L82.4663 20.88ZM82.4663 18.32L82.9513 18.4413L82.9807 18.3236L82.953 18.2055L82.4663 18.32ZM82.4663 15.76L82.9513 15.8813L82.9807 15.7636L82.953 15.6455L82.4663 15.76ZM82.4663 13.2L82.9513 13.3213L82.9807 13.2036L82.953 13.0855L82.4663 13.2ZM82.4663 10.64L82.9513 10.7613L82.9807 10.6436L82.953 10.5255L82.4663 10.64ZM82.4663 8.08V7.58H82.0759L81.9812 7.95873L82.4663 8.08ZM90.1463 8.08L90.6313 7.95873L90.5366 7.58H90.1463V8.08ZM90.1463 10.64V11.14H90.5423L90.633 10.7545L90.1463 10.64ZM85.0262 10.64V10.14H84.3859L84.5412 10.7613L85.0262 10.64ZM85.0262 13.2L84.5395 13.0855L84.5118 13.2036L84.5412 13.3213L85.0262 13.2ZM85.0262 15.76L84.5395 15.6455L84.395 16.26H85.0262V15.76ZM90.1463 15.76L90.6313 15.6387L90.5366 15.26H90.1463V15.76ZM90.1463 18.32V18.82H90.5423L90.633 18.4345L90.1463 18.32ZM84.5412 18.4413C84.6132 18.7294 84.6543 19.1121 84.6543 19.6H85.6543C85.6543 19.0639 85.6099 18.5932 85.5113 18.1987L84.5412 18.4413ZM84.6543 19.6C84.6543 20.0635 84.6138 20.45 84.5395 20.7655L85.513 20.9945C85.6094 20.5847 85.6543 20.1178 85.6543 19.6H84.6543ZM84.5412 21.0013C84.6132 21.2894 84.6543 21.6721 84.6543 22.16H85.6543C85.6543 21.6239 85.6099 21.1532 85.5113 20.7587L84.5412 21.0013ZM84.6543 22.16C84.6543 22.6235 84.6138 23.01 84.5395 23.3255L85.513 23.5545C85.6094 23.1447 85.6543 22.6778 85.6543 22.16H84.6543ZM85.0262 23.94H90.1463V22.94H85.0262V23.94ZM89.6612 23.5613C89.7332 23.8494 89.7743 24.2321 89.7743 24.72H90.7743C90.7743 24.1839 90.7299 23.7132 90.6313 23.3187L89.6612 23.5613ZM89.7743 24.72C89.7743 25.1835 89.7338 25.57 89.6595 25.8855L90.633 26.1145C90.7294 25.7047 90.7743 25.2378 90.7743 24.72H89.7743ZM90.1463 25.5H82.4663V26.5H90.1463V25.5ZM82.953 25.8855C82.8787 25.57 82.8382 25.1835 82.8382 24.72H81.8382C81.8382 25.2378 81.8831 25.7047 81.9795 26.1145L82.953 25.8855ZM82.8382 24.72C82.8382 24.2321 82.8793 23.8494 82.9513 23.5613L81.9812 23.3187C81.8826 23.7132 81.8382 24.1839 81.8382 24.72H82.8382ZM82.953 23.3255C82.8787 23.01 82.8382 22.6235 82.8382 22.16H81.8382C81.8382 22.6778 81.8831 23.1447 81.9795 23.5545L82.953 23.3255ZM82.8382 22.16C82.8382 21.6721 82.8793 21.2894 82.9513 21.0013L81.9812 20.7587C81.8826 21.1532 81.8382 21.6239 81.8382 22.16H82.8382ZM82.953 20.7655C82.8787 20.45 82.8382 20.0635 82.8382 19.6H81.8382C81.8382 20.1178 81.8831 20.5847 81.9795 20.9945L82.953 20.7655ZM82.8382 19.6C82.8382 19.1121 82.8793 18.7294 82.9513 18.4413L81.9812 18.1987C81.8826 18.5932 81.8382 19.0639 81.8382 19.6H82.8382ZM82.953 18.2055C82.8787 17.89 82.8382 17.5035 82.8382 17.04H81.8382C81.8382 17.5578 81.8831 18.0247 81.9795 18.4345L82.953 18.2055ZM82.8382 17.04C82.8382 16.5521 82.8793 16.1694 82.9513 15.8813L81.9812 15.6387C81.8826 16.0332 81.8382 16.5039 81.8382 17.04H82.8382ZM82.953 15.6455C82.8787 15.33 82.8382 14.9435 82.8382 14.48H81.8382C81.8382 14.9978 81.8831 15.4647 81.9795 15.8745L82.953 15.6455ZM82.8382 14.48C82.8382 13.9921 82.8793 13.6094 82.9513 13.3213L81.9812 13.0787C81.8826 13.4732 81.8382 13.9439 81.8382 14.48H82.8382ZM82.953 13.0855C82.8787 12.77 82.8382 12.3835 82.8382 11.92H81.8382C81.8382 12.4378 81.8831 12.9047 81.9795 13.3145L82.953 13.0855ZM82.8382 11.92C82.8382 11.4321 82.8793 11.0494 82.9513 10.7613L81.9812 10.5187C81.8826 10.9132 81.8382 11.3839 81.8382 11.92H82.8382ZM82.953 10.5255C82.8787 10.21 82.8382 9.82349 82.8382 9.36H81.8382C81.8382 9.87784 81.8831 10.3447 81.9795 10.7545L82.953 10.5255ZM82.8382 9.36C82.8382 8.87213 82.8793 8.48945 82.9513 8.20127L81.9812 7.95873C81.8826 8.35322 81.8382 8.82387 81.8382 9.36H82.8382ZM82.4663 8.58H90.1463V7.58H82.4663V8.58ZM89.6612 8.20127C89.7332 8.48945 89.7743 8.87213 89.7743 9.36H90.7743C90.7743 8.82387 90.7299 8.35322 90.6313 7.95873L89.6612 8.20127ZM89.7743 9.36C89.7743 9.82349 89.7338 10.21 89.6595 10.5255L90.633 10.7545C90.7294 10.3447 90.7743 9.87784 90.7743 9.36H89.7743ZM90.1463 10.14H85.0262V11.14H90.1463V10.14ZM84.5412 10.7613C84.6132 11.0494 84.6543 11.4321 84.6543 11.92H85.6543C85.6543 11.3839 85.6099 10.9132 85.5113 10.5187L84.5412 10.7613ZM84.6543 11.92C84.6543 12.3835 84.6138 12.77 84.5395 13.0855L85.513 13.3145C85.6094 12.9047 85.6543 12.4378 85.6543 11.92H84.6543ZM84.5412 13.3213C84.6132 13.6094 84.6543 13.9921 84.6543 14.48H85.6543C85.6543 13.9439 85.6099 13.4732 85.5113 13.0787L84.5412 13.3213ZM84.6543 14.48C84.6543 14.9435 84.6138 15.33 84.5395 15.6455L85.513 15.8745C85.6094 15.4647 85.6543 14.9978 85.6543 14.48H84.6543ZM85.0262 16.26H90.1463V15.26H85.0262V16.26ZM89.6612 15.8813C89.7332 16.1694 89.7743 16.5521 89.7743 17.04H90.7743C90.7743 16.5039 90.7299 16.0332 90.6313 15.6387L89.6612 15.8813ZM89.7743 17.04C89.7743 17.5035 89.7338 17.89 89.6595 18.2055L90.633 18.4345C90.7294 18.0247 90.7743 17.5578 90.7743 17.04H89.7743ZM90.1463 17.82H85.0262V18.82H90.1463V17.82ZM104.239 10.64L103.752 10.5255L103.724 10.6436L103.754 10.7613L104.239 10.64ZM104.239 13.2L103.752 13.0855L103.724 13.2036L103.754 13.3213L104.239 13.2ZM104.239 15.76L103.752 15.6455L103.724 15.7636L103.754 15.8813L104.239 15.76ZM104.239 18.32L103.752 18.2055L103.724 18.3236L103.754 18.4413L104.239 18.32ZM104.239 20.88L103.752 20.7655L103.724 20.8836L103.754 21.0013L104.239 20.88ZM104.239 23.44L103.752 23.3255L103.724 23.4436L103.754 23.5613L104.239 23.44ZM104.239 26V26.5H104.635L104.725 26.1145L104.239 26ZM101.679 26L101.192 26.1145L101.283 26.5H101.679V26ZM101.679 23.44L102.164 23.5613L102.319 22.94H101.679V23.44ZM100.079 23.44L99.592 23.5545L99.6827 23.94H100.079V23.44ZM100.079 20.88L100.564 21.0013L100.719 20.38H100.079V20.88ZM99.1188 20.88L98.632 20.9945L98.7227 21.38H99.1188V20.88ZM99.1188 18.32L99.6038 18.4413L99.7591 17.82H99.1188V18.32ZM97.8387 18.32L97.352 18.4345L97.4427 18.82H97.8387V18.32ZM97.8387 15.76L98.3238 15.8813L98.4791 15.26H97.8387V15.76ZM96.5588 15.76V15.26H95.9184L96.0737 15.8813L96.5588 15.76ZM96.5588 18.32L96.072 18.2055L96.0443 18.3236L96.0737 18.4413L96.5588 18.32ZM96.5588 20.88L96.072 20.7655L96.0443 20.8836L96.0737 21.0013L96.5588 20.88ZM96.5588 23.44L96.072 23.3255L96.0443 23.4436L96.0737 23.5613L96.5588 23.44ZM96.5588 26V26.5H96.9548L97.0455 26.1145L96.5588 26ZM93.9987 26L93.512 26.1145L93.6027 26.5H93.9987V26ZM93.9987 23.44L94.4838 23.5613L94.5132 23.4436L94.4855 23.3255L93.9987 23.44ZM93.9987 20.88L94.4838 21.0013L94.5132 20.8836L94.4855 20.7655L93.9987 20.88ZM93.9987 18.32L94.4838 18.4413L94.5132 18.3236L94.4855 18.2055L93.9987 18.32ZM93.9987 15.76L94.4838 15.8813L94.5132 15.7636L94.4855 15.6455L93.9987 15.76ZM93.9987 13.2L94.4838 13.3213L94.5132 13.2036L94.4855 13.0855L93.9987 13.2ZM93.9987 10.64L94.4838 10.7613L94.5132 10.6436L94.4855 10.5255L93.9987 10.64ZM93.9987 8.08V7.58H93.6084L93.5137 7.95873L93.9987 8.08ZM97.1987 8.08L97.6838 7.95873L97.5891 7.58H97.1987V8.08ZM97.1987 10.64L96.712 10.5255L96.5674 11.14H97.1987V10.64ZM98.1587 10.64L98.6438 10.5187L98.5491 10.14H98.1587V10.64ZM98.1587 13.2L97.672 13.0855L97.5274 13.7H98.1587V13.2ZM99.1188 13.2L99.6038 13.0787L99.5091 12.7H99.1188V13.2ZM99.1188 15.76L98.632 15.6455L98.4874 16.26H99.1188V15.76ZM100.399 15.76L100.884 15.6387L100.789 15.26H100.399V15.76ZM100.399 18.32L99.912 18.2055L99.7674 18.82H100.399V18.32ZM101.679 18.32V18.82H102.31L102.165 18.2055L101.679 18.32ZM101.679 15.76L102.164 15.8813L102.193 15.7636L102.165 15.6455L101.679 15.76ZM101.679 13.2L102.164 13.3213L102.193 13.2036L102.165 13.0855L101.679 13.2ZM101.679 10.64L102.164 10.7613L102.193 10.6436L102.165 10.5255L101.679 10.64ZM101.679 8.08V7.58H101.288L101.194 7.95873L101.679 8.08ZM104.239 8.08L104.724 7.95873L104.629 7.58H104.239V8.08ZM103.754 10.7613C103.826 11.0494 103.867 11.4321 103.867 11.92H104.867C104.867 11.3839 104.822 10.9132 104.724 10.5187L103.754 10.7613ZM103.867 11.92C103.867 12.3835 103.826 12.77 103.752 13.0855L104.725 13.3145C104.822 12.9047 104.867 12.4378 104.867 11.92H103.867ZM103.754 13.3213C103.826 13.6094 103.867 13.9921 103.867 14.48H104.867C104.867 13.9439 104.822 13.4732 104.724 13.0787L103.754 13.3213ZM103.867 14.48C103.867 14.9435 103.826 15.33 103.752 15.6455L104.725 15.8745C104.822 15.4647 104.867 14.9978 104.867 14.48H103.867ZM103.754 15.8813C103.826 16.1694 103.867 16.5521 103.867 17.04H104.867C104.867 16.5039 104.822 16.0332 104.724 15.6387L103.754 15.8813ZM103.867 17.04C103.867 17.5035 103.826 17.89 103.752 18.2055L104.725 18.4345C104.822 18.0247 104.867 17.5578 104.867 17.04H103.867ZM103.754 18.4413C103.826 18.7295 103.867 19.1121 103.867 19.6H104.867C104.867 19.0639 104.822 18.5932 104.724 18.1987L103.754 18.4413ZM103.867 19.6C103.867 20.0635 103.826 20.45 103.752 20.7655L104.725 20.9945C104.822 20.5847 104.867 20.1178 104.867 19.6H103.867ZM103.754 21.0013C103.826 21.2894 103.867 21.6721 103.867 22.16H104.867C104.867 21.6239 104.822 21.1532 104.724 20.7587L103.754 21.0013ZM103.867 22.16C103.867 22.6235 103.826 23.01 103.752 23.3255L104.725 23.5545C104.822 23.1447 104.867 22.6778 104.867 22.16H103.867ZM103.754 23.5613C103.826 23.8494 103.867 24.2321 103.867 24.72H104.867C104.867 24.1839 104.822 23.7132 104.724 23.3187L103.754 23.5613ZM103.867 24.72C103.867 25.1835 103.826 25.57 103.752 25.8855L104.725 26.1145C104.822 25.7047 104.867 25.2378 104.867 24.72H103.867ZM104.239 25.5H101.679V26.5H104.239V25.5ZM102.165 25.8855C102.091 25.57 102.051 25.1835 102.051 24.72H101.051C101.051 25.2378 101.096 25.7047 101.192 26.1145L102.165 25.8855ZM102.051 24.72C102.051 24.2321 102.092 23.8494 102.164 23.5613L101.194 23.3187C101.095 23.7132 101.051 24.1839 101.051 24.72H102.051ZM101.679 22.94H100.079V23.94H101.679V22.94ZM100.565 23.3255C100.491 23.01 100.451 22.6235 100.451 22.16H99.4508C99.4508 22.6778 99.4956 23.1447 99.592 23.5545L100.565 23.3255ZM100.451 22.16C100.451 21.6721 100.492 21.2894 100.564 21.0013L99.5937 20.7587C99.4951 21.1532 99.4508 21.6239 99.4508 22.16H100.451ZM100.079 20.38H99.1188V21.38H100.079V20.38ZM99.6055 20.7655C99.5312 20.45 99.4907 20.0635 99.4907 19.6H98.4907C98.4907 20.1178 98.5356 20.5847 98.632 20.9945L99.6055 20.7655ZM99.4907 19.6C99.4907 19.1121 99.5318 18.7294 99.6038 18.4413L98.6337 18.1987C98.5351 18.5932 98.4907 19.0639 98.4907 19.6H99.4907ZM99.1188 17.82H97.8387V18.82H99.1188V17.82ZM98.3255 18.2055C98.2512 17.89 98.2108 17.5035 98.2108 17.04H97.2108C97.2108 17.5578 97.2556 18.0247 97.352 18.4345L98.3255 18.2055ZM98.2108 17.04C98.2108 16.5521 98.2518 16.1694 98.3238 15.8813L97.3537 15.6387C97.2551 16.0332 97.2108 16.5039 97.2108 17.04H98.2108ZM97.8387 15.26H96.5588V16.26H97.8387V15.26ZM96.0737 15.8813C96.1457 16.1694 96.1867 16.5521 96.1867 17.04H97.1867C97.1867 16.5039 97.1424 16.0332 97.0438 15.6387L96.0737 15.8813ZM96.1867 17.04C96.1867 17.5035 96.1463 17.89 96.072 18.2055L97.0455 18.4345C97.1419 18.0247 97.1867 17.5578 97.1867 17.04H96.1867ZM96.0737 18.4413C96.1457 18.7294 96.1867 19.1121 96.1867 19.6H97.1867C97.1867 19.0639 97.1424 18.5932 97.0438 18.1987L96.0737 18.4413ZM96.1867 19.6C96.1867 20.0635 96.1463 20.45 96.072 20.7655L97.0455 20.9945C97.1419 20.5847 97.1867 20.1178 97.1867 19.6H96.1867ZM96.0737 21.0013C96.1457 21.2894 96.1867 21.6721 96.1867 22.16H97.1867C97.1867 21.6239 97.1424 21.1532 97.0438 20.7587L96.0737 21.0013ZM96.1867 22.16C96.1867 22.6235 96.1463 23.01 96.072 23.3255L97.0455 23.5545C97.1419 23.1447 97.1867 22.6778 97.1867 22.16H96.1867ZM96.0737 23.5613C96.1457 23.8494 96.1867 24.2321 96.1867 24.72H97.1867C97.1867 24.1839 97.1424 23.7132 97.0438 23.3187L96.0737 23.5613ZM96.1867 24.72C96.1867 25.1835 96.1463 25.57 96.072 25.8855L97.0455 26.1145C97.1419 25.7047 97.1867 25.2378 97.1867 24.72H96.1867ZM96.5588 25.5H93.9987V26.5H96.5588V25.5ZM94.4855 25.8855C94.4112 25.57 94.3708 25.1835 94.3708 24.72H93.3708C93.3708 25.2378 93.4156 25.7047 93.512 26.1145L94.4855 25.8855ZM94.3708 24.72C94.3708 24.2321 94.4118 23.8494 94.4838 23.5613L93.5137 23.3187C93.4151 23.7132 93.3708 24.1839 93.3708 24.72H94.3708ZM94.4855 23.3255C94.4112 23.01 94.3708 22.6235 94.3708 22.16H93.3708C93.3708 22.6778 93.4156 23.1447 93.512 23.5545L94.4855 23.3255ZM94.3708 22.16C94.3708 21.6721 94.4118 21.2894 94.4838 21.0013L93.5137 20.7587C93.4151 21.1532 93.3708 21.6239 93.3708 22.16H94.3708ZM94.4855 20.7655C94.4112 20.45 94.3708 20.0635 94.3708 19.6H93.3708C93.3708 20.1178 93.4156 20.5847 93.512 20.9945L94.4855 20.7655ZM94.3708 19.6C94.3708 19.1121 94.4118 18.7294 94.4838 18.4413L93.5137 18.1987C93.4151 18.5932 93.3708 19.0639 93.3708 19.6H94.3708ZM94.4855 18.2055C94.4112 17.89 94.3708 17.5035 94.3708 17.04H93.3708C93.3708 17.5578 93.4156 18.0247 93.512 18.4345L94.4855 18.2055ZM94.3708 17.04C94.3708 16.5521 94.4118 16.1694 94.4838 15.8813L93.5137 15.6387C93.4151 16.0332 93.3708 16.5039 93.3708 17.04H94.3708ZM94.4855 15.6455C94.4112 15.33 94.3708 14.9435 94.3708 14.48H93.3708C93.3708 14.9978 93.4156 15.4647 93.512 15.8745L94.4855 15.6455ZM94.3708 14.48C94.3708 13.9921 94.4118 13.6094 94.4838 13.3213L93.5137 13.0787C93.4151 13.4732 93.3708 13.9439 93.3708 14.48H94.3708ZM94.4855 13.0855C94.4112 12.77 94.3708 12.3835 94.3708 11.92H93.3708C93.3708 12.4378 93.4156 12.9047 93.512 13.3145L94.4855 13.0855ZM94.3708 11.92C94.3708 11.4321 94.4118 11.0494 94.4838 10.7613L93.5137 10.5187C93.4151 10.9132 93.3708 11.3839 93.3708 11.92H94.3708ZM94.4855 10.5255C94.4112 10.21 94.3708 9.82349 94.3708 9.36H93.3708C93.3708 9.87784 93.4156 10.3447 93.512 10.7545L94.4855 10.5255ZM94.3708 9.36C94.3708 8.87213 94.4118 8.48945 94.4838 8.20127L93.5137 7.95873C93.4151 8.35322 93.3708 8.82387 93.3708 9.36H94.3708ZM93.9987 8.58H97.1987V7.58H93.9987V8.58ZM96.7137 8.20127C96.7857 8.48945 96.8268 8.87213 96.8268 9.36H97.8268C97.8268 8.82387 97.7824 8.35322 97.6838 7.95873L96.7137 8.20127ZM96.8268 9.36C96.8268 9.82349 96.7863 10.21 96.712 10.5255L97.6855 10.7545C97.7819 10.3447 97.8268 9.87784 97.8268 9.36H96.8268ZM97.1987 11.14H98.1587V10.14H97.1987V11.14ZM97.6737 10.7613C97.7457 11.0494 97.7868 11.4321 97.7868 11.92H98.7868C98.7868 11.3839 98.7424 10.9132 98.6438 10.5187L97.6737 10.7613ZM97.7868 11.92C97.7868 12.3835 97.7463 12.77 97.672 13.0855L98.6455 13.3145C98.7419 12.9047 98.7868 12.4378 98.7868 11.92H97.7868ZM98.1587 13.7H99.1188V12.7H98.1587V13.7ZM98.6337 13.3213C98.7057 13.6094 98.7467 13.9921 98.7467 14.48H99.7467C99.7467 13.9439 99.7024 13.4732 99.6038 13.0787L98.6337 13.3213ZM98.7467 14.48C98.7467 14.9435 98.7063 15.33 98.632 15.6455L99.6055 15.8745C99.7019 15.4647 99.7467 14.9978 99.7467 14.48H98.7467ZM99.1188 16.26H100.399V15.26H99.1188V16.26ZM99.9137 15.8813C99.9857 16.1694 100.027 16.5521 100.027 17.04H101.027C101.027 16.5039 100.982 16.0332 100.884 15.6387L99.9137 15.8813ZM100.027 17.04C100.027 17.5035 99.9863 17.89 99.912 18.2055L100.885 18.4345C100.982 18.0247 101.027 17.5578 101.027 17.04H100.027ZM100.399 18.82H101.679V17.82H100.399V18.82ZM102.165 18.2055C102.091 17.89 102.051 17.5035 102.051 17.04H101.051C101.051 17.5578 101.096 18.0247 101.192 18.4345L102.165 18.2055ZM102.051 17.04C102.051 16.5521 102.092 16.1694 102.164 15.8813L101.194 15.6387C101.095 16.0332 101.051 16.5039 101.051 17.04H102.051ZM102.165 15.6455C102.091 15.33 102.051 14.9435 102.051 14.48H101.051C101.051 14.9978 101.096 15.4647 101.192 15.8745L102.165 15.6455ZM102.051 14.48C102.051 13.9921 102.092 13.6094 102.164 13.3213L101.194 13.0787C101.095 13.4732 101.051 13.9439 101.051 14.48H102.051ZM102.165 13.0855C102.091 12.77 102.051 12.3835 102.051 11.92H101.051C101.051 12.4378 101.096 12.9047 101.192 13.3145L102.165 13.0855ZM102.051 11.92C102.051 11.4321 102.092 11.0494 102.164 10.7613L101.194 10.5187C101.095 10.9132 101.051 11.3839 101.051 11.92H102.051ZM102.165 10.5255C102.091 10.21 102.051 9.82349 102.051 9.36H101.051C101.051 9.87784 101.096 10.3447 101.192 10.7545L102.165 10.5255ZM102.051 9.36C102.051 8.87213 102.092 8.48945 102.164 8.20127L101.194 7.95873C101.095 8.35322 101.051 8.82387 101.051 9.36H102.051ZM101.679 8.58H104.239V7.58H101.679V8.58ZM103.754 8.20127C103.826 8.48945 103.867 8.87213 103.867 9.36H104.867C104.867 8.82387 104.822 8.35322 104.724 7.95873L103.754 8.20127ZM103.867 9.36C103.867 9.82349 103.826 10.21 103.752 10.5255L104.725 10.7545C104.822 10.3447 104.867 9.87784 104.867 9.36H103.867Z" fill="#7ECA9C" mask="url(#path-3-outside-2_13_80)"/>
</svg>
